<svg id="Layer_1" data-name="Layer 1" xmlns="http://www.w3.org/2000/svg"
    xmlns:xlink="http://www.w3.org/1999/xlink" viewBox="0 0 655.92 639">
    <defs>
        <style>
            .cls-1{fill:none;}.cls-2{fill:#e5e7eb;}.cls-3{clip-path:url(#clip-path);}.cls-4{fill:#9a080d;}.cls-5{clip-path:url(#clip-path-2);}.cls-6{clip-path:url(#clip-path-3);}.cls-7{clip-path:url(#clip-path-5);}.cls-8{clip-path:url(#clip-path-6);}.cls-9{clip-path:url(#clip-path-7);}.cls-10{clip-path:url(#clip-path-9);}.cls-11{clip-path:url(#clip-path-10);}.cls-12{clip-path:url(#clip-path-11);}.cls-13{clip-path:url(#clip-path-13);}.cls-14{clip-path:url(#clip-path-14);}.cls-15{clip-path:url(#clip-path-15);}.cls-16{clip-path:url(#clip-path-17);}.cls-17{clip-path:url(#clip-path-18);}.cls-18{clip-path:url(#clip-path-19);}.cls-19{clip-path:url(#clip-path-21);}.cls-20{clip-path:url(#clip-path-22);}.cls-21{clip-path:url(#clip-path-23);}.cls-22{clip-path:url(#clip-path-25);}.cls-23{clip-path:url(#clip-path-26);}.cls-24{clip-path:url(#clip-path-27);}.cls-25{clip-path:url(#clip-path-29);}.cls-26{clip-path:url(#clip-path-30);}.cls-27{clip-path:url(#clip-path-31);}</style>
        <clipPath id="clip-path" transform="translate(-172.56 -180)">
            <path class="cls-1"
                d="M455.63,555.58a2,2,0,0,0,.51-2.34h.05C381.37,389.68,279.06,265.63,279.06,265.63s-55.68,52.87-51.71,105.85c2.13,40.1,32.22,63.83,32.22,63.83C308.17,482.71,425.71,542.48,453,556a2.25,2.25,0,0,0,2.62-.45" />
        </clipPath>
        <clipPath id="clip-path-2" transform="translate(-172.56 -180)">
            <path class="cls-1"
                d="M223.37,265.37H456.71v291H223.37Zm514780,24361.57s58.21,46.85,27,124h2.75c-3967.5,8682.73-9392.88,15268.25-9392.88,15268.25s-2952.84-2806.68-2742.28-5618.89c112.84-2128.88,1708.75-3388.5,1708.75-3388.5,2577.16-2516.46,8810.34-5689.6,10257.63-6408.72,18.81-9.19,95.43-32.15,139,23.87" />
        </clipPath>
        <clipPath id="clip-path-3" transform="translate(-172.56 -180)">
            <rect class="cls-1" x="223.45" y="265.37" width="233.26" height="291.01" />
        </clipPath>
        <clipPath id="clip-path-5" transform="translate(-172.56 -180)">
            <path class="cls-1"
                d="M437.49,596.09a2.75,2.75,0,0,0-2.59-1.76v-.08l-195.63,6.83c21.2,37.89,57,67.3,94.2,58.29,25.71-6.4,83.87-47,103.1-60.8l0-.06c1.46-1.34,1-2.42,1-2.42" />
        </clipPath>
        <clipPath id="clip-path-6" transform="translate(-172.56 -180)">
            <path class="cls-1"
                d="M238.9,594H437.62v74.13H238.9ZM503687.72,22036.33c-26.5,91.79-133.94,91.79-133.94,91.79v4L493388,21776.71c1102.06-1970.78,2960.66-3500.62,4894.81-3032.22,1336.25,333.42,4357.66,2445.93,5357.28,3163.15l-2.25,3.15c75.94,69.3,49.88,125.54,49.88,125.54" />
        </clipPath>
        <clipPath id="clip-path-7" transform="translate(-172.56 -180)">
            <rect class="cls-1" x="238.9" y="593.95" width="198.72" height="74.13" />
        </clipPath>
        <clipPath id="clip-path-9" transform="translate(-172.56 -180)">
            <path class="cls-1"
                d="M440.36,578.48c1-1.52-.69-2.89-.69-2.89l0,0c-85.94-58.06-252.53-147.1-252.53-147.1-15.14,46.91,5.27,84.67,5.27,84.67,21.21,45,61.73,58.53,61.73,58.53a118.9,118.9,0,0,0,37.42,8.24c3,.49,116.43.05,146.82-.09a2.43,2.43,0,0,0,1.94-1.34" />
        </clipPath>
        <clipPath id="clip-path-10" transform="translate(-172.56 -180)">
            <path class="cls-1"
                d="M172.56,429.1H441.87V581.05H172.56Zm513530.5,22961.41c52.25,80.74-37.09,153.23-37.09,153.23l2.28.92c-4552.66,3079.26-13378.78,7801.83-13378.78,7801.83-802-2487.91,279.09-4490.44,279.09-4490.44,1123.69-2384.22,3270.35-3104.5,3270.35-3104.5,991.25-409.67,1982.5-436.74,1982.5-436.74,156.78-26.61,6168.09-2.75,7778.5,4.59,68.34.92,103.15,71.11,103.15,71.11" />
        </clipPath>
        <clipPath id="clip-path-11" transform="translate(-172.56 -180)">
            <rect class="cls-1" x="172.66" y="429.16" width="269.21" height="151.88" />
        </clipPath>
        <clipPath id="clip-path-13" transform="translate(-172.56 -180)">
            <path class="cls-1"
                d="M453.41,181c-8.54.79-31.51,6-31.51,6-51.82,13.38-64,60.44-64,60.44-9.47,29.62.24,62.15.24,62.15,17.28,76.79,102.39,203,120.7,229.49,1.26,1.33,2.31.85,2.31.85a2.38,2.38,0,0,0,1.85-2.41C511.09,255.74,453.41,181,453.41,181" />
        </clipPath>
        <clipPath id="clip-path-14" transform="translate(-172.56 -180)">
            <path class="cls-1"
                d="M348.63,180.16H511.34V539.61H348.63ZM514912.34,44513.34c-452.81-41.8-1670.78-320.55-1670.78-320.55-2748.4-710.44-3397.5-3208.66-3397.5-3208.66-501.87-1572.42,13.28-3299.6,13.28-3299.6,916.16-4076.62,5429.75-10776.83,6400.94-12183,66.53-70.73,122.47-45.46,122.47-45.46,105.06,28.47,97.75,128.12,97.75,128.12,1492.28,14961.37-1566.16,18929.15-1566.16,18929.15" />
        </clipPath>
        <clipPath id="clip-path-15" transform="translate(-172.56 -180)">
            <rect class="cls-1" x="348.63" y="180.34" width="162.71" height="359.27" />
        </clipPath>
        <clipPath id="clip-path-17" transform="translate(-172.56 -180)">
            <path class="cls-1"
                d="M518.2,539.89a2.29,2.29,0,0,0,2.85-1.07h.06c18.7-27.19,103.27-152.69,120.54-229.19,0,0,9.3-37.1.27-62.15,0,0-12.78-47.79-64.69-60.44,0,0-14.92-3.79-30.76-6,0,0-58,74.77-29.8,356.74h0a2.29,2.29,0,0,0,1.49,2.15" />
        </clipPath>
        <clipPath id="clip-path-18" transform="translate(-172.56 -180)">
            <path class="cls-1"
                d="M488.1,180H650.56V539.64H488.1ZM518976,25491c98.31-40.46,151.13,56.56,151.13,56.56h2.75c993.5,1445.57,5483.65,8115.74,6400.9,12182.12,0,0,493.32,1972,13.82,3303.59,0,0-678,2540.34-3434.29,3212.56,0,0-792.28,200.92-1633.75,320.93,0,0-3078.75-3974-1581.84-18961.73h2.28c10.1-97,79-114,79-114" />
        </clipPath>
        <clipPath id="clip-path-19" transform="translate(-172.56 -180)">
            <rect class="cls-1" x="488.1" y="180.09" width="162.47" height="359.55" />
        </clipPath>
        <clipPath id="clip-path-21" transform="translate(-172.56 -180)">
            <path class="cls-1"
                d="M564.54,594.43s-1.75.22-2.23,1.52a2.78,2.78,0,0,0,.75,2.63v0c18.7,13.45,75.49,53.17,102.87,60.94,0,0,50.57,17.2,94.56-58.31l-196-6.86v0" />
        </clipPath>
        <clipPath id="clip-path-22" transform="translate(-172.56 -180)">
            <path class="cls-1"
                d="M561.21,594.77H759.79v82.37H561.21ZM520774.94,22565.9s-93.13-11.48-118.31-80.82c0,0-21.57-93.22,39.4-139.6v-2.29c991.78-714.53,4003.78-2822.74,5455.66-3235.11,0,0,2681.19-912.89,5013.81,3095.51l-10390.56,364.15v-1.84" />
        </clipPath>
        <clipPath id="clip-path-23" transform="translate(-172.56 -180)">
            <rect class="cls-1" x="561.27" y="594.98" width="198.52" height="82.16" />
        </clipPath>
        <clipPath id="clip-path-25" transform="translate(-172.56 -180)">
            <path class="cls-1"
                d="M812.52,428S646.19,517.37,560.17,575.39l.05.07a2.6,2.6,0,0,0-1.05,2.82s.84,1.51,2,1.51v0c30.76,0,147.35.14,150.31-.36a117.11,117.11,0,0,0,33.63-7.79s41.48-13.19,63-60.3c0,0,19.2-38.43,4.35-83.37" />
        </clipPath>
        <clipPath id="clip-path-26" transform="translate(-172.56 -180)">
            <path class="cls-1"
                d="M559.61,427.09H828.32V579H559.61Zm534293.2,31025.5s-8835.56-4752.3-13405.06-7837.54l2.72-3.22s-82.72-54.28-55.56-150.42c0,0,44.59-80,108-80v-1.84c1634-1.84,7827.5-7.37,7984.56,19.31,0,0,801.44,33.12,1787.12,414,0,0,2203.44,701,3347.63,3206.68,0,0,1020.12,2043.33,230.62,4433" />
        </clipPath>
        <clipPath id="clip-path-27" transform="translate(-172.56 -180)">
            <rect class="cls-1" x="559.61" y="427.28" width="268.71" height="151.76" />
        </clipPath>
        <clipPath id="clip-path-29" transform="translate(-172.56 -180)">
            <path class="cls-1"
                d="M544.49,555.58a2.45,2.45,0,0,0,2.61.22c28-13.9,144.69-73.34,193-120.49,0,0,30.55-24.56,32.17-64.08,3.49-54.82-51.61-105.6-51.61-105.6s-102,123.57-176.81,286.84h0a2.75,2.75,0,0,0,.59,3.11" />
        </clipPath>
        <clipPath id="clip-path-30" transform="translate(-172.56 -180)">
            <path class="cls-1"
                d="M543.23,266.12H775.94v291H543.23ZM520100.94,24645.79s69.84-53.77,138.19-12c1487.84,738.49,7678.81,3896.51,10243.18,6401.51,0,0,1621,1304.67,1707.25,3403.88,185.07,2912.63-2738.75,5610.18-2738.75,5610.18s-5412.87-6564.66-9383.84-15238.18h2.75s-44.94-100.19,31.22-165.44" />
        </clipPath>
        <clipPath id="clip-path-31" transform="translate(-172.56 -180)">
            <rect class="cls-1" x="543.23" y="266.12" width="232.71" height="290.97" />
        </clipPath>
    </defs>
    <!-- <title>Huawei Logo Vector</title> -->
    <g>
        <polyline class="cls-2"
            points="32.52 576.88 84.51 576.88 84.51 535.35 107.77 535.35 107.77 637.86 84.51 637.86 84.51 595.06 32.52 595.06 32.52 637.86 9.19 637.86 9.19 535.35 32.52 535.35 32.52 576.88" />
        <path class="cls-2"
            d="M322.7,776.76c0,18.09,5.73,25.67,25,25.67s24.89-7.58,24.89-25.67V715.35h23.36v62c0,13.14-1.6,22.12-6.55,27.54-9.08,10-22.36,14.14-41.7,14.14s-32.74-4.13-41.83-14.14c-5.12-5.52-6.33-14.54-6.33-27.54v-62H322.7v61.41"
            transform="translate(-172.56 -180)" />
        <path class="cls-2"
            d="M442.63,775.21h33.12l-16.88-39.42-16.24,39.42m29.5-59.86,47.31,102.51h-26l-10.21-24.38H435.08l-9.91,24.38H400.48l46.89-102.51Z"
            transform="translate(-172.56 -180)" />
        <polyline class="cls-2"
            points="357.47 535.35 383.11 614.13 404.72 535.35 432.25 535.35 457.12 614.13 481.02 535.35 504.95 535.35 470.68 637.86 442.09 637.86 418.44 561.35 397.77 637.86 369.35 637.86 332.42 535.35 357.47 535.35" />
        <path class="cls-2"
            d="M709,757h64.48v17.83H708.8c.19,18.47,8,25.18,26.34,25.18h38.33v17.82H734.09c-13.42,0-23.79-1-34.59-9-11.42-8.38-17-21.82-17-40.38,0-36.26,16.55-53.14,52.17-53.14h38.78v17.86H735.14c-16.77,0-25.25,7.73-26.15,23.82"
            transform="translate(-172.56 -180)" />
        <rect class="cls-2" x="621.47" y="535.35" width="24.38" height="102.51" />
    </g>
    <g class="cls-3">
        <path class="cls-4"
            d="M455.63,555.58a2,2,0,0,0,.51-2.34h.05C381.37,389.68,279.06,265.63,279.06,265.63s-55.68,52.87-51.71,105.85c2.13,40.1,32.22,63.83,32.22,63.83C308.17,482.71,425.71,542.48,453,556a2.25,2.25,0,0,0,2.62-.45"
            transform="translate(-172.56 -180)" />
    </g>
    <g class="cls-7">
        <path class="cls-4"
            d="M437.49,596.09a2.75,2.75,0,0,0-2.59-1.76v-.08l-195.63,6.83c21.2,37.89,57,67.3,94.2,58.29,25.71-6.4,83.87-47,103.1-60.8l0-.06c1.46-1.34,1-2.42,1-2.42"
            transform="translate(-172.56 -180)" />
    </g>
    <g class="cls-10">
        <path class="cls-4"
            d="M440.36,578.48c1-1.52-.69-2.89-.69-2.89l0,0c-85.94-58.06-252.53-147.1-252.53-147.1-15.14,46.91,5.27,84.67,5.27,84.67,21.21,45,61.73,58.53,61.73,58.53a118.9,118.9,0,0,0,37.42,8.24c3,.49,116.43.05,146.82-.09a2.43,2.43,0,0,0,1.94-1.34"
            transform="translate(-172.56 -180)" />
    </g>
    <g class="cls-13">
        <path class="cls-4"
            d="M453.41,181c-8.54.79-31.51,6-31.51,6-51.82,13.38-64,60.44-64,60.44-9.47,29.62.24,62.15.24,62.15,17.28,76.79,102.39,203,120.7,229.49,1.26,1.33,2.31.85,2.31.85a2.38,2.38,0,0,0,1.85-2.41C511.09,255.74,453.41,181,453.41,181"
            transform="translate(-172.56 -180)" />
    </g>
    <g class="cls-16">
        <path class="cls-4"
            d="M518.2,539.89a2.29,2.29,0,0,0,2.85-1.07h.06c18.7-27.19,103.27-152.69,120.54-229.19,0,0,9.3-37.1.27-62.15,0,0-12.78-47.79-64.69-60.44,0,0-14.92-3.79-30.76-6,0,0-58,74.77-29.8,356.74h0a2.29,2.29,0,0,0,1.49,2.15"
            transform="translate(-172.56 -180)" />
    </g>
    <g class="cls-19">
        <path class="cls-4"
            d="M564.54,594.43s-1.75.22-2.23,1.52a2.78,2.78,0,0,0,.75,2.63v0c18.7,13.45,75.49,53.17,102.87,60.94,0,0,50.57,17.2,94.56-58.31l-196-6.86v0"
            transform="translate(-172.56 -180)" />
    </g>
    <g class="cls-22">
        <path class="cls-4"
            d="M812.52,428S646.19,517.37,560.17,575.39l.05.07a2.6,2.6,0,0,0-1.05,2.82s.84,1.51,2,1.51v0c30.76,0,147.35.14,150.31-.36a117.11,117.11,0,0,0,33.63-7.79s41.48-13.19,63-60.3c0,0,19.2-38.43,4.35-83.37"
            transform="translate(-172.56 -180)" />
    </g>
    <g class="cls-25">
        <path class="cls-4"
            d="M544.49,555.58a2.45,2.45,0,0,0,2.61.22c28-13.9,144.69-73.34,193-120.49,0,0,30.55-24.56,32.17-64.08,3.49-54.82-51.61-105.6-51.61-105.6s-102,123.57-176.81,286.84h0a2.75,2.75,0,0,0,.59,3.11"
            transform="translate(-172.56 -180)" />
    </g>
</svg>