<?xml version="1.0" encoding="iso-8859-1"?>
<!-- Generator: Adobe Illustrator 24.3.0, SVG Export Plug-In . SVG Version: 6.00 Build 0)  -->
<svg version="1.1" id="Layer_1" xmlns="http://www.w3.org/2000/svg" xmlns:xlink="http://www.w3.org/1999/xlink" x="0px" y="0px"
	 viewBox="0 190 500 110" style="enable-background:new 0 190 500 110;" xml:space="preserve">
<g>
	<path style="fill:#050052;" d="M251.687,257.686c-2.325-1.05-6.674-2.325-12.973-3.749c-6.299-1.425-10.198-2.85-11.698-4.199
		c-1.5-1.35-2.25-3.074-2.25-5.249c0-2.475,1.05-4.499,3.224-6.224s5.549-2.625,10.273-2.625c4.499,0,7.874,0.975,10.198,2.85
		c2.325,1.875,3.674,4.724,4.049,8.474l7.499-0.6c-0.15-3.449-1.125-6.524-2.85-9.298c-1.8-2.7-4.349-4.799-7.649-6.224
		c-3.299-1.425-7.199-2.1-11.548-2.1c-3.974,0-7.499,0.675-10.798,2.025c-3.224,1.35-5.699,3.299-7.349,5.924
		c-1.65,2.625-2.55,5.399-2.55,8.324c0,2.7,0.675,5.174,2.025,7.349c1.35,2.175,3.449,3.974,6.299,5.474
		c2.175,1.125,5.924,2.4,11.323,3.674c5.399,1.275,8.849,2.25,10.423,2.85c2.475,0.9,4.199,2.1,5.249,3.449
		c1.05,1.35,1.575,2.999,1.575,4.874c0,1.8-0.525,3.524-1.65,5.024c-1.125,1.575-2.775,2.775-5.024,3.674
		c-2.25,0.9-4.874,1.35-7.799,1.35c-3.374,0-6.299-0.6-8.999-1.725c-2.625-1.2-4.649-2.7-5.924-4.574
		c-1.275-1.875-2.1-4.349-2.4-7.274l-7.349,0.6c0.075,3.974,1.2,7.499,3.224,10.573c2.025,3.149,4.874,5.474,8.474,7.049
		c3.599,1.575,8.024,2.325,13.348,2.325c4.199,0,7.949-0.75,11.323-2.325s5.924-3.674,7.724-6.449c1.8-2.775,2.7-5.699,2.7-8.849
		s-0.825-5.999-2.475-8.399C257.611,261.211,255.137,259.261,251.687,257.686 M332.749,229.716h-8.099v58.94h36.744v-8.099h-28.645
		V229.716z M386.815,229.716l-21.896,58.94h8.249l6.074-17.847h25.196l6.524,17.847h8.924l-23.246-58.94H386.815z M381.416,264.51
		l9.973-29.32l10.723,29.32H381.416z M464.802,272.684c-2.025-3.149-3.899-5.924-5.474-7.799c-0.9-1.125-2.4-2.475-3.824-3.15
		c5.174-0.45,7.949-2.4,10.648-5.249s4.049-6.374,4.049-10.573c0-3.224-0.825-6.224-2.475-8.924c-1.65-2.7-3.824-4.574-6.524-5.624
		c-2.775-1.05-6.749-1.575-11.923-1.575h-26.096v58.94h8.024V262.56h8.774c2.025,0,3.449,0.075,4.349,0.3
		c1.2,0.3,2.4,0.825,3.599,1.575c1.125,0.75,2.475,2.1,3.899,3.974c1.5,1.875,3.374,4.574,5.624,8.099l7.799,12.223H475
		L464.802,272.684z M447.704,255.812h-16.497V236.24h18.372c4.349,0,7.499,0.9,9.523,2.7c2.025,1.8,3,4.124,3,6.899
		c0,1.875-0.525,3.674-1.575,5.324c-1.05,1.65-2.55,2.775-4.574,3.524C454.078,255.437,451.304,255.812,447.704,255.812
		 M291.805,228.741c-15.897,0-24.521,9.373-27.37,21.896c-0.45,2.025-1.05,5.924-1.05,8.474c0,2.85,0.6,6.974,1.125,9.148
		c3,12.298,11.248,21.446,27.295,21.446c16.047,0,23.171-8.249,26.771-19.647c0.825-2.7,1.65-7.124,1.65-10.798
		c0-2.85-0.6-6.899-1.125-9.073C316.101,237.815,308.078,228.741,291.805,228.741 M311.452,265.785
		c-1.875,9.823-8.699,17.247-19.647,17.247c-10.723,0-17.097-6.824-19.422-16.047c-0.375-1.425-0.825-3.374-0.975-8.474
		c0-2.025,0.675-5.924,0.825-6.524c2.025-9.448,8.324-16.497,19.497-16.497c11.023,0,16.947,6.599,19.347,15.597
		c0.225,0.9,0.975,4.649,1.05,7.499C312.202,261.885,311.677,264.735,311.452,265.785"/>
	<path style="fill:#00479D;" d="M162.152,218.243L162.152,218.243c-2.7-4.874-6.524-7.949-10.648-7.949s-7.874,2.999-10.498,7.724
		l0,0l-42.668,71.613h17.697l35.544-59.765l14.173,23.921H143.93l-8.099,13.648h38.094l13.198,22.271h17.547L162.152,218.243z"/>
	<path style="fill:#00479D;" d="M95.188,254.162c0,12.748-3.749,22.046-11.323,27.895c-6.749,5.099-16.722,7.649-29.995,7.649H25
		v-13.798h28.795c8.924,0,15.522-1.35,19.797-4.049c5.174-3.374,7.724-9.298,7.724-17.697v-43.493h13.873V254.162z"/>
</g>
</svg>
