<?xml version="1.0" encoding="UTF-8" standalone="no"?>
<!-- Created with Inkscape (http://www.inkscape.org/) -->

<svg
   version="1.1"
   id="svg1"
   width="2047"
   height="2047"
   viewBox="0 0 2047 2047"
   sodipodi:docname="lumileds_logo.svg"
   inkscape:version="1.3.2 (091e20e, 2023-11-25, custom)"
   xmlns:inkscape="http://www.inkscape.org/namespaces/inkscape"
   xmlns:sodipodi="http://sodipodi.sourceforge.net/DTD/sodipodi-0.dtd"
   xmlns="http://www.w3.org/2000/svg"
   xmlns:svg="http://www.w3.org/2000/svg">
  <defs
     id="defs1" />
  <sodipodi:namedview
     id="namedview1"
     pagecolor="#ffffff"
     bordercolor="#000000"
     borderopacity="0.25"
     inkscape:showpageshadow="2"
     inkscape:pageopacity="0.0"
     inkscape:pagecheckerboard="0"
     inkscape:deskcolor="#d1d1d1"
     inkscape:zoom="0.28083919"
     inkscape:cx="507.40782"
     inkscape:cy="1237.3629"
     inkscape:window-width="1920"
     inkscape:window-height="1009"
     inkscape:window-x="-8"
     inkscape:window-y="892"
     inkscape:window-maximized="1"
     inkscape:current-layer="g1" />
  <g
     inkscape:groupmode="layer"
     inkscape:label="Image"
     id="g1">
    <g
       id="g101">
      <path
         style="fill:#65727a;fill-opacity:1"
         d="m 1012.4124,914.50691 -0.6257,-2.4931 -1.1434,0.6534 -1.1433,0.6534 0.6649,-0.7419 0.6649,-0.7418 -1.3566,-3.2467 -1.3565,-3.2467 -0.2177,-5.9218 -0.2177,-5.9217 -9.34064,-9.7754 L 989,873.94921 v -1.4746 -1.4746 h 2.25537 2.25538 l 7.24465,-7.3853 7.2446,-7.3852 v -31.8413 -31.8412 l -7.225,-7.2735 -7.22494,-7.2735 H 975.27503 957 v -1.9182 -1.9182 l -0.60699,-1.5818 -0.60699,-1.5818 h 18.36688 18.36687 l 7.69773,-7.5741 7.6977,-7.574 v -31.676 -31.6759 l -7.7121,-7.7881 -7.7121,-7.788 -13.5,0.1458 -13.5,0.1458 0.0558,-0.8578 0.0558,-0.8577 0.80264,-2.75 0.80264,-2.75 h 12.98879 12.98879 l 7.41734,-7.25 7.4172,-7.25 -0.1161,-31.2704 -0.1161,-31.2704 1.4971,-2.2296 1.4971,-2.2296 1.8895,-2 1.8896,-2 1.6651,-2.4013 1.6651,-2.4013 4.6469,-4.8487 4.6468,-4.8487 h 26.6781 26.6781 l 7.2249,-7.2735 7.225,-7.2735 v -12.0599 -12.0598 l 0.6344,-0.6344 0.6344,-0.6344 3.3656,4.4077 3.3656,4.4078 v 8.3914 8.3913 l 6.9972,6.9187 6.9973,6.9186 3.5945,0.5 3.5945,0.5 1.36,3.25 1.36,3.25 h -4.9305 -4.9305 l -7.0213,6.9107 -7.0212,6.9107 v 32.9238 32.9239 l 6.9731,6.6655 6.9731,6.6654 H 1135.4731 1154 v 3.5 3.5 l -17.25,0.1184 -17.25,0.1184 -0.8935,-0.1662 -0.8935,-0.1663 -7.3315,7.2979 -7.3314,7.2978 -0.025,32.3824 -0.025,32.3824 7.2361,7.4095 7.2361,7.4095 12.3232,-0.1493 12.3231,-0.1493 0.2984,0.3574 0.2985,0.3574 -1.3606,3.25 -1.3605,3.25 h -11.801 -11.801 l -3.2137,3.3157 -3.2138,3.3158 0.6843,0.6842 0.6842,0.6843 h -1.4795 -1.4796 l -2.6871,2.8047 -2.6871,2.8047 v 26.5135 26.5135 l -3.1758,4.1322 -3.1759,4.1321 -0.8241,-0.5094 -0.8243,-0.5093 v -30.2457 -30.2457 l -6.943,-6.6953 -6.9429,-6.6953 h -26.3164 -26.3164 l -6.7407,6.8983 -6.7406,6.8982 v 32.8763 32.8763 l 6.9131,6.7254 6.9131,6.7255 h 26.0155 26.0154 l 1.6191,-1.6191 1.619,-1.619 0.5665,0.5664 0.5664,0.5665 -2.0958,3.3026 -2.0958,3.3026 -0.8872,1.3469 -0.8872,1.347 -24.6924,-0.1408 -24.6925,-0.1407 -7.4386,7.2128 -7.4386,7.2128 v 12.331 12.331 h -0.9809 -0.981 z m 75.4162,-150.8344 7.2786,-7.3275 -0.079,-32.4225 -0.079,-32.4225 -7.1997,-7.25 -7.1996,-7.25 h -25.3601 -25.3601 l -7.3922,7.2733 -7.3922,7.2734 -0.073,32.3812 -0.073,32.3813 7.4654,7.3454 7.4655,7.3454 h 25.3601 25.3601 z m -7.8286,4.8275 v -0.5 h 0.5 0.5 v 0.5 0.5 h -0.5 -0.5 z m -58,-7 v -0.5 h 0.5 0.5 v 0.5 0.5 h -0.5 -0.5 z m 66.1431,-98.3672 6.9082,-6.8673 -0.079,-32.8678 -0.079,-32.8678 -5.9499,-5.8222 -5.9499,-5.8221 -0.9856,0.6091 -0.9856,0.6092 0.5955,-1.552 0.5962,-1.5519 h -26.4468 -26.4467 l -7.1603,7.0475 -7.1602,7.0476 v 32.6773 32.6774 l 6.7232,6.7751 6.7232,6.7751 h 26.3943 26.3942 z M 1028,667.50001 v -0.5 h 0.5 0.5 v 0.5 0.5 h -0.5 -0.5 z m 2,-2 v -0.5 h 0.5 0.5 v 0.5 0.5 h -0.5 -0.5 z m -2,-1 v -0.5 h 0.5 0.5 v 0.5 0.5 h -0.5 -0.5 z m -8.1276,-5.25 -1.3724,-1.75 1.75,1.3724 1.75,1.3725 v 0.3775 0.3776 h -0.3776 -0.3775 z m 68.1276,1.25 v -0.5 h 0.5 0.5 v 0.5 0.5 h -0.5 -0.5 z m -59,-78 v -0.5 h 0.5 0.5 v 0.5 0.5 h -0.5 -0.5 z"
         id="path68"
         inkscape:label="panel" />
      <path
         style="fill:#f9af08;fill-opacity:1"
         d="m 997.5,1054.952 -11,-1.9264 -2.25,-0.9913 -2.25,-0.9914 -0.0239,-5.2715 -0.0239,-5.2714 -1.05346,-4 -1.05347,-4 -0.93963,-5.9759 -0.93963,-5.9759 -0.91673,-3.0241 -0.91673,-3.0241 -3.31632,-10.5 -3.31632,-10.49999 -0.75,-0.3333 -0.75,-0.3334 v -1.9796 -1.9796 l -2.59314,-5.6871 -2.59323,-5.687 -7.13014,-14.75 -7.13013,-14.75 h -0.5574 -0.55739 l -1.06762,-2.8285 -1.06762,-2.8284 -3.34571,-5.1106 -3.3457,-5.1106 -0.96042,0.5935 -0.96043,0.5936 0.73737,-1.1931 0.73737,-1.1931 -6.27386,-9.2114 -6.27386,-9.2114 -1.60342,-1.5 -1.60343,-1.5 -2.07541,-3.5866 -2.07541,-3.5865 -1.88017,-2.3415 -1.88016,-2.3416 -4.07554,-4.5719 -4.07555,-4.5719 -5.54783,-7 -5.54782,-7 -13.68851,-13.7708 -13.6885,-13.7708 -1.09263,0.6753 -1.09264,0.6753 0.74665,-1.2081 0.74665,-1.2081 -5.09214,-4.8058 L 857,836.28111 v -0.7529 -0.7529 l -6.50807,-7.712 -6.50808,-7.7121 -7.05498,-10.9256 -7.05497,-10.9256 -7.4054,-15 -7.4054,-15 -3.11018,-8.5 -3.11018,-8.5 -0.87549,-3 -0.87548,-3 -2.97686,-11.1714 -2.97686,-11.1715 -2.1801,-15.3285 -2.18011,-15.3286 -0.0429,-21 -0.0429,-21 2.11137,-13.5 2.11137,-13.5 1.46659,-6.5 1.46659,-6.5 1.60401,-6 1.60401,-6 1.59491,-5 1.59492,-5 1.99663,-5 1.99663,-5 1.47373,-3.5 1.47373,-3.5 6.60509,-13.25 6.60509,-13.25 H 831.19832 832 v -1.3061 -1.306 l 6.25,-9.0038 6.25,-9.0037 3.46159,-4.4402 3.46158,-4.4402 5.47035,-6.3181 5.47035,-6.3182 6.59675,-6.6818 6.59675,-6.6819 7.97132,-7.0433 7.97131,-7.0434 3.5,-2.4085 3.5,-2.4085 0.5,-0.5811 0.5,-0.5812 5.43527,-3.967 5.43527,-3.967 3.28199,-2 3.282,-2 10.35159,-6.25 10.35159,-6.25 h 2.74373 2.74373 l 6.18741,1.97 6.18742,1.97 6,1.6536 6,1.6536 8.5,2.9775 8.5,2.9776 5,1.7872 5,1.7873 12,6.2914 12,6.2914 4.6461,2.5702 4.6461,2.5702 5.8539,3.8829 5.8539,3.8829 0.5095,0.7869 0.5094,0.7869 1.4387,0.3302 1.4387,0.3302 2.3357,2 2.3357,2 1.7445,1.5 1.7444,1.5 5.4717,4.4269 5.4717,4.4268 5.3237,5.0732 5.3238,5.0731 1.0059,1.8332 1.006,1.8332 -1.7347,1.9168 -1.7347,1.9168 h -0.7411 -0.741 l -9.2167,6.25 -9.2167,6.25 -2.1961,1.5 -2.1962,1.5 -4.8936,4 -4.8936,4 -3.172,3 -3.172,3 -3.6255,3.1647 -3.6255,3.1646 v 0.9325 0.9326 l -1.8924,0.9028 -1.8923,0.9028 -4.8577,5.6704 -4.8576,5.6704 -7.25,8.4517 -7.25,8.4518 v 0.6696 0.6697 l -2,2.1468 -2,2.1467 v 1.3705 1.3704 l -0.85704,-0.5297 -0.85704,-0.5296 -2.71558,4.7206 -2.71558,4.7207 -4.91711,8.5 -4.91711,8.5 -4.64687,9.5 -4.64688,9.5 -0.75597,2 -0.75597,2 -2.60742,6.3159 -2.60743,6.3159 -0.006,1.1841 -0.006,1.1841 -1.56008,2.992 -1.56008,2.992 -1.98967,8.008 -1.98966,8.008 -1.79908,8.4465 -1.79907,8.4466 0.47161,1.8034 0.47161,1.8035 h -0.97853 -0.97854 l -0.63894,6.25 -0.63895,6.25 -0.74915,6 -0.74915,6 0.0989,20.5 0.0989,20.5 1.24219,7 1.24219,7 1.36295,9 1.36296,9 1.9519,8.5187 1.9519,8.5188 1.51049,3.4812 1.51048,3.4813 2.20483,7 2.20482,7 0.74846,1 0.74846,1 1.23117,4 1.23118,4 5.50636,11 5.50636,11 1.27451,1.5 1.27451,1.5 0.73435,2.5 0.73434,2.5 2.18913,3 2.18913,3 2.85824,5 2.85824,5 0.58656,0.5 0.58657,0.5 3.18181,6.5 3.18182,6.5 7.56817,15.7526 7.5682,15.7526 v 1.3011 1.301 l 2.5913,5.4463 2.5913,5.4464 0.7749,2 0.775,2 2.1337,5.5193 2.1338,5.5193 v 3.4168 3.4168 l -1.5367,6.5639 -1.5366,6.5639 -0.9308,3.5 -0.9307,3.5 -1.0905,5.49999 -1.0905,5.5 -0.9525,8 -0.9524,8 -0.6122,16 -0.6121,16 -0.1296,0.1687 -0.1295,0.1687 -2.4979,0.5205 -2.498,0.5205 z"
         id="path66"
         inkscape:label="led_left" />
      <path
         style="fill:#65727a;fill-opacity:1"
         d="m 1029.336,1056.2028 -0.6337,-2.5251 0.642,-14.5888 0.6419,-14.5889 1.5131,-10.5 1.5131,-10.5 2.9361,-11.99999 2.936,-12 2.4375,-7.5 2.4375,-7.5 2.1974,-5.4827 2.1974,-5.4827 2.4228,-5.2969 2.4229,-5.297 v -0.3743 -0.3743 l 3.6288,-6.346 3.6289,-6.3461 6.9942,-13.5 6.9942,-13.5 5.0297,-8.5 5.0297,-8.5 6.0263,-9 6.0262,-9 6.753,-9 6.753,-9 1.898,-2.0257 1.8979,-2.0257 1.8718,-2.9743 1.8718,-2.9743 2.8704,-3.735 2.8704,-3.735 -0.6377,-2.265 -0.6376,-2.265 0.9138,1.3135 0.9138,1.3136 4.0299,-6.8136 4.0298,-6.8135 3.7637,-7.5 3.7636,-7.5 3.4554,-8 3.4554,-8 3.4602,-10.4825 3.4602,-10.4825 1.8527,-7.0175 1.8528,-7.0175 1.5734,-8 1.5734,-8 1.5165,-11.8012 1.5164,-11.8012 v -18.8976 -18.8976 l -1.5196,-11.8012 -1.5197,-11.8012 -1.9847,-9.5 -1.9847,-9.5 -0.8939,-3.5 -0.8938,-3.5 -2.6694,-8.9985 -2.6695,-8.9985 -2.5801,-6.5015 -2.5801,-6.5015 -2.9214,-6.5 -2.9214,-6.5 -3.5451,-6.919 -3.5451,-6.919 -3.9142,-6.581 -3.9143,-6.581 -0.7215,-1.2297 -0.7215,-1.2297 -4.9527,-7.2703 -4.9526,-7.2703 -6.5118,-8 -6.5117,-8 -3.5356,-3.9639 -3.5356,-3.9638 -4.7735,-4.8307 -4.7735,-4.8306 -1.131,0.699 -1.131,0.699 0.6762,-1.0941 0.6762,-1.0942 -3.7717,-3.4827 -3.7717,-3.4828 -2.5,-2.1382 -2.5,-2.1382 -2.2898,-1.9674 -2.2897,-1.9673 -9.7103,-7.2716 -9.7102,-7.2715 -8,-5.0436 -8,-5.0436 -7.4841,-3.9038 -7.484,-3.9038 -1.3663,0.3138 -1.3663,0.3137 0.6149,-0.9948 0.6148,-0.9949 -2.2645,-0.716 -2.2645,-0.7159 -6,-2.8032 -6,-2.8031 -6.17058,-2.4506 -6.17059,-2.4506 -10.32941,-3.2112 -10.32942,-3.2112 6.5,-2.3838 6.5,-2.3838 11,-3.0828 11,-3.0829 6.9947,-1.421 6.9946,-1.4211 11.5054,-1.5493 11.5053,-1.5494 16.5,-0.5905 16.5,-0.5906 14,1.2123 14,1.2123 13,2.4061 13,2.4062 9.5,2.5513 9.5,2.5512 12.5,4.6031 12.5,4.603 12.8558,6.3411 12.8557,6.341 9.1443,5.7216 9.1442,5.7216 7.5,5.4576 7.5,5.4577 3.5,2.9511 3.5,2.9512 4.2553,3.6423 4.2554,3.6423 9.3929,9.5 9.3929,9.5 5.3518,6.37 5.3517,6.3699 2,2.7039 2,2.7038 6.8024,10.1421 6.8024,10.1421 4.775,9.0401 4.7749,9.04 0.833,-0.7559 0.833,-0.756 -0.7181,1.2479 -0.7181,1.248 1.5141,2.752 1.5141,2.7521 2.5106,5.7073 2.5106,5.7074 4.1042,12.2926 4.1041,12.2927 2.3646,10 2.3646,10 1.8143,11.5 1.8143,11.5 -0.038,25.5 -0.038,25.5 -2.2401,13 -2.2401,13 -2.0792,8 -2.0791,8 -2.3602,7.5 -2.3601,7.5 -1.4421,4 -1.442,4 -4.1761,9.5 -4.176,9.5 -4.5036,8.4777 -4.5035,8.4777 -7.3802,11.0223 -7.3801,11.0223 -5.281,6.6081 -5.2809,6.608 -3.8295,4.392 -3.8295,4.3919 -14.1727,14.5 -14.1727,14.5 -6.4978,7.1315 -6.4978,7.1315 -5.5,6.2403 -5.5,6.2402 -2.5,3.0681 -2.5,3.0681 -4,4.5894 -4,4.5894 -6,7.9707 -6,7.9708 -0.5458,0.5 -0.5457,0.5 -6.5666,9.5 -6.5666,9.5 -0.705,2.25 -0.7051,2.25 h -0.7876 -0.7875 l -4.042,8.75 -4.042,8.75 -1.6762,5 -1.6762,5 -2.3922,9.5 -2.3921,9.49999 -1.4717,12 -1.4717,12 -0.7026,13.6377 -0.7026,13.6378 -5.1104,0.5155 -5.1104,0.5155 -14,2.0492 -14,2.0492 -14.5,1.0885 -14.5,1.0886 -21.2651,-0.1771 -21.2651,-0.177 z"
         id="path65"
         inkscape:label="led_right" />
      <path
         style="fill:#65727a;fill-opacity:1"
         d="m 1046,1172.7367 -0.5,-0.4957 -12.5,-0.5709 -12.5,-0.5709 -7,-1.0534 -7,-1.0535 -8.9459,-2.0718 -8.9459,-2.0717 -2.76521,-1.43 -2.76521,-1.4299 -2.53889,-4.3323 L 978,1153.3243 v -3.761 -3.761 l 1.62685,-3.4284 1.62685,-3.4283 2.50855,-1.9732 2.50855,-1.9733 3.83173,-1.148 3.83173,-1.148 11.78284,2.5833 11.7829,2.5833 14,1.2045 14,1.2044 20.5,-0.6399 20.5,-0.6399 12,-1.4785 12,-1.4784 0.75,-0.021 0.75,-0.021 v -13.1113 -13.1113 l -3.25,0.5756 -3.25,0.5755 -11,1.239 -11,1.2389 -27.5,-6e-4 -27.5,-5e-4 -12.4113,-1.7341 -12.4114,-1.734 -8.43723,-2.1161 -8.43723,-2.1161 -2.93734,-2.4716 -2.93733,-2.4716 -1.46409,-2.8313 L 978,1095.0993 v -4.2118 -4.2118 l 2.4659,-4.2077 2.46589,-4.2077 3.43523,-1.6302 3.43524,-1.6301 h 3.91942 3.91941 l 8.92941,1.9056 8.9295,1.9056 10,1.2333 10,1.2333 20,0.01 20,0.01 12,-1.1805 12,-1.1805 13.5,-2.0792 13.5,-2.0791 5.3931,0.5534 5.3931,0.5533 3.2539,3.1539 3.2539,3.1538 1.1595,4.1537 1.1595,4.1536 -0.3065,32 -0.3065,32 -1.7258,3.1535 -1.7257,3.1534 -3.39,2.0952 -3.39,2.0951 -16.3843,2.4171 -16.3842,2.4172 -11.5,1.0666 -11.5,1.0667 -16.5,0.6338 -16.5,0.6337 z"
         id="path60"
         inkscape:label="led_base" />
      <path
         style="fill:#f9af08;fill-opacity:1"
         d="m 955.37458,1328.5615 -3.12542,-1.3602 -0.94061,-5.8506 -0.94061,-5.8507 0.56603,-11.8972 0.56603,-11.8971 2.82061,-2.1029 2.82061,-2.1028 16.42456,-0.336 16.42456,-0.3359 2.88307,1.2762 2.88308,1.2761 1.27576,2.0429 1.27577,2.0428 -0.28494,15.0169 -0.28494,15.017 -0.11907,2.1667 -0.11907,2.1666 -0.5,-0.078 -0.5,-0.078 -2.8151,1.1615 -2.8151,1.1615 -16.1849,-0.039 -16.1849,-0.039 z"
         id="path59"
         inkscape:label="i_2" />
      <path
         style="fill:#65727a;fill-opacity:1"
         d="M 1022.415,1538.083 1022,1537.6664 V 1412.8333 1288 h 23 23 v 123.4182 123.4182 l 0.5931,1.5455 0.593,1.5455 -23.1781,0.2863 -23.178,0.2863 z"
         id="path34"
         inkscape:label="l_2" />
      <path
         style="fill:#f9af08;fill-opacity:1"
         d="m 952.24402,1538.172 -1.25599,-0.7974 -0.0142,-93.3658 -0.0142,-93.3658 1.27019,-0.8062 1.2702,-0.8062 21.69098,-0.015 21.69099,-0.015 0.61786,0.9997 0.61786,0.9997 -0.0706,93.1149 -0.0706,93.1148 -0.54723,0.8855 -0.54723,0.8854 -21.69099,-0.015 -21.69098,-0.015 z"
         id="path33"
         inkscape:label="i" />
      <path
         style="fill:#f9af08;fill-opacity:1"
         d="M 382.66667,1538.3333 382,1537.6667 v -123.3991 -123.3991 l 1.03518,-1.9342 1.03519,-1.9343 h 21.39339 21.39338 l 1.57143,1.5714 1.57143,1.5715 v 123.8215 123.8216 l -1.58179,0.607 -1.58178,0.607 h -21.75155 -21.75155 z"
         id="path32"
         inkscape:label="l" />
      <path
         style="fill:#f9af08;fill-opacity:1"
         d="m 781,1539.0327 -19.5,-0.5327 -0.58621,-56.5 -0.58621,-56.5 -1.34051,-3.4763 -1.34052,-3.4764 -1.31711,-2.5236 -1.31712,-2.5237 -0.006,-1.309 -0.006,-1.309 -1,0.618 -1,0.618 v -1.6745 -1.6745 l -4.25,-3.8863 -4.25,-3.8863 -5,-1.7482 -5,-1.7482 -11.04596,0.1274 -11.04596,0.1273 -5.45404,2.5648 -5.45404,2.5647 -3.17657,2.8755 -3.17657,2.8754 -2.48883,5.4325 -2.48883,5.4324 -1.32183,4 -1.32182,4 -0.0128,55.2923 -0.0128,55.2924 -2,0.4904 -2,0.4904 -21.5,-0.2827 -21.5,-0.2828 v -58 -58 l 0.70989,-4 0.70989,-4 1.17304,-5 1.17304,-5 -0.0267,-2.2434 -0.0267,-2.2434 0.8938,0.5524 0.8938,0.5524 v -1.0293 -1.0294 l 2.5,-5.4656 2.5,-5.4655 v -0.6702 -0.6702 l 3,-3.7878 3,-3.7878 v -1.0849 -1.0849 l 7.32958,-7.2712 7.32959,-7.2712 3.42041,-2.8552 3.42042,-2.8552 5.5,-2.4602 5.5,-2.4602 4.29388,-2.0451 4.29387,-2.045 9.20613,-1.3825 9.20612,-1.3825 7,0.044 7,0.044 6.5,0.8575 6.5,0.8575 8.12632,2.435 8.12633,2.435 2.87367,1.9481 2.87368,1.948 3.86235,1.9581 3.86235,1.9581 4.13765,3.8272 4.13765,3.8271 2,0.7951 2,0.795 3.5,-3.0703 3.5,-3.0704 -0.238,-0.7658 -0.23801,-0.7659 1.65205,0.6339 1.65205,0.634 -0.72306,-1.17 -0.72306,-1.1699 h 1.48229 1.48229 l 2.97108,-2.5 2.97108,-2.5 h 1.16466 1.16466 l -0.61095,-0.9885 -0.61096,-0.9886 1.55194,0.5955 1.55194,0.5956 v -1.2737 -1.2736 l 0.65799,0.658 0.65799,0.6579 1.09201,-0.8272 1.09201,-0.8272 6,-1.7405 6,-1.7405 2,-0.8703 2,-0.8704 5.5,-0.546 5.5,-0.5461 5.5,-0.1335 5.5,-0.1336 7,0.698 7,0.6981 7,2.0694 7,2.0695 6.5,3.0045 6.5,3.0045 4.5,3.5527 4.5,3.5528 6.75,6.8091 6.75,6.809 v 0.4482 0.4481 l 2.48592,3.7944 2.48591,3.7944 1.05351,1.25 1.05351,1.25 h -0.46107 -0.46106 l 3.52902,8.75 3.52903,8.75 2.0962,11 2.09619,11 0.0464,55.5 0.0464,55.5 -21.5,0.2828 -21.5,0.2827 -2.17772,-0.5337 -2.17772,-0.5336 -0.36142,-57.2491 -0.36143,-57.2491 -1.82324,-4 -1.82325,-4 -0.73978,-0.5 -0.73979,-0.5 -1.70362,-3.6275 -1.70363,-3.6275 -4.15311,-3.3375 -4.1531,-3.3375 -6.9479,-1.7266 -6.9479,-1.7266 -8.59319,0.4983 -8.5932,0.4983 -6.25,3.114 -6.25,3.114 v 1.3102 1.3103 l -2.40093,0.6026 -2.40093,0.6026 -2.66161,5.9308 -2.66161,5.9309 -1.04558,5.2356 -1.04558,5.2356 -0.47456,53.8062 -0.47456,53.8062 -2.48242,0.9438 -2.48242,0.9438 -1.1849,-0.2173 -1.1849,-0.2172 z"
         id="path31"
         inkscape:label="m" />
      <path
         style="fill:#65727a;fill-opacity:1"
         d="m 1549,1540.339 -8.5,-1.4748 -10.5,-3.5207 -10.5,-3.5206 -7.2127,-4.4592 -7.2127,-4.4593 -5.4705,-6.1413 -5.4704,-6.1412 -3.0991,-6.3561 -3.0991,-6.356 -1.5761,-6.152 -1.576,-6.1521 -0.1417,-6.5528 -0.1417,-6.5529 h 23 23 l -0.3314,2.3593 -0.3314,2.3593 1.07,-0.6612 1.0699,-0.6613 -0.5964,1.5542 -0.5964,1.5542 0.5887,2.3457 0.5888,2.3457 3.7092,4.2315 3.7091,4.2315 5.06,2.5711 5.0599,2.571 5,1.3376 5,1.3377 15.5,0.01 15.5,0.01 5.9446,-0.9734 5.9447,-0.9735 5.0553,-2.5831 5.0554,-2.5832 1.9833,-2.685 1.9834,-2.6851 v -5.5205 -5.5205 l -2.2128,-3.1076 -2.2128,-3.1075 -5.2706,-2.0993 -5.2705,-2.0993 -4.5,-1.0158 -4.5,-1.0159 -18,-1.0536 -18,-1.0536 -9.1089,-1.893 -9.1089,-1.893 -8.822,-3.5573 -8.8219,-3.5573 -5.9882,-4.7047 -5.9883,-4.7046 -3.3025,-3.5508 -3.3025,-3.5508 -3.7002,-7.4222 -3.7001,-7.4222 -0.4504,-10.1263 -0.4503,-10.1264 2.0295,-7.9514 2.0296,-7.9515 2.7773,-5 2.7772,-5 6.7664,-6.7083 6.7663,-6.7084 10.2989,-4.9944 10.299,-4.9944 6.5,-1.5689 6.5,-1.5688 2.5,-0.3861 2.5,-0.3862 9,-0.6878 9,-0.6878 11.9116,1.1778 11.9116,1.1778 7.5344,1.927 7.5344,1.9269 8.054,3.9178 8.054,3.9177 5.768,5.1691 5.768,5.1691 4.3494,6.1539 4.3495,6.154 1.599,5 1.599,5 1.026,6.5 1.026,6.5 0.01,3.25 0.01,3.25 h -22.9547 -22.9547 l -0.7022,-3.75 -0.7022,-3.75 -1.3284,-3.1825 -1.3283,-3.1826 -2.3718,-2.5593 -2.3719,-2.5593 -5.8929,-2.6537 -5.8929,-2.6538 -10.8658,-0.4876 -10.8657,-0.4876 -5.6343,1.2515 -5.6342,1.2516 -3.9485,2.0033 -3.9486,2.0032 -2.7942,2.7942 -2.7942,2.7942 -1.0072,2.6493 -1.0073,2.6493 v 4.5525 4.5526 l 3.7776,3.7775 3.7775,3.7776 5.4725,1.7012 5.4724,1.7012 22,0.8174 22,0.8175 10.3021,2.1157 10.3021,2.1157 4.6979,1.589 4.6979,1.589 6,3.0109 6,3.0109 7.1158,7.2142 7.1158,7.2142 2.7637,8.2987 2.7637,8.2987 -0.5189,12.1076 -0.5189,12.1077 -2.4489,7.0658 -2.449,7.0657 -5.1539,6.5583 -5.154,6.5583 -5.4838,4.1403 -5.4838,4.1403 -7.7739,3.5539 -7.7739,3.554 -8,1.8702 -8,1.8702 -10.9237,1.0615 -10.9237,1.0615 -12.5763,-0.093 -12.5763,-0.093 z"
         id="path30"
         inkscape:label="s" />
      <path
         style="fill:#65727a;fill-opacity:1"
         d="m 1363.5,1541.0062 -5,-0.7442 -6.3767,-1.6428 -6.3767,-1.6427 -8.0096,-3.471 -8.0096,-3.471 -5.6137,-4.2074 -5.6137,-4.2073 -3.7698,-3.5347 -3.7698,-3.5347 -2.7274,-4.0252 -2.7274,-4.0252 -0.5104,-0.5 -0.5105,-0.5 -2.5928,-5 -2.5929,-5 -2.0546,-5.5 -2.0545,-5.5 -0.746,-2 -0.746,-2 -0.2671,-1 -0.267,-1 -1.5819,-10.2434 L 1290,1458.0132 V 1444 1429.9868 l 1.4676,-9.7434 1.4676,-9.7434 2.1319,-6.5 2.1318,-6.5 2.3962,-5.7095 2.3962,-5.7095 3.9448,-6.1034 3.9447,-6.1033 3.3817,-3.6871 3.3818,-3.6872 4.9702,-4.1344 4.9702,-4.1345 7.9577,-3.9664 7.9576,-3.9665 7,-1.7343 7,-1.7342 1.5,-0.6709 1.5,-0.6708 9.5,0.097 9.5,0.098 8.7623,2.7228 8.7623,2.7227 7.2377,4.8455 7.2377,4.8454 4.75,4.6892 4.75,4.6891 V 1329.0989 1288 h 22.5 22.5 v 82.25 82.25 l -1.0701,9 -1.07,9 -1.4539,6 -1.4538,6 -2.6403,7.5 -2.6402,7.5 -2.3331,3.4821 -2.333,3.4822 v 0.9148 0.9149 l -3.6347,4.4357 -3.6347,4.4357 -3.6153,3.5441 -3.6153,3.5442 -5.0231,3.7371 -5.0231,3.737 -3.9769,2.0133 -3.9769,2.0134 -7.5,2.7164 -7.5,2.7164 -8.5,1.4025 -8.5,1.4026 -8.5,-0.121 -8.5,-0.1209 z m 25.7815,-43.5791 6.0702,-1.573 4.5741,-3.1201 4.5742,-3.1202 2.7181,-3.0569 2.7182,-3.0569 2.5926,-4.7471 2.5927,-4.7471 -0.7153,-1.1574 -0.7153,-1.1574 1.012,0.6254 1.012,0.6255 1.8403,-7.721 1.8403,-7.7209 -0.026,-14 -0.026,-14 -1.6447,-6.2247 -1.6446,-6.2246 -2.9379,-5.8199 -2.9378,-5.8198 -4.8394,-4.8096 -4.8393,-4.8095 -5.4129,-2.5438 -5.4128,-2.5438 -9.3081,-0.4869 -9.3081,-0.4869 -7.2553,2.3329 -7.2552,2.3329 -5.6332,5.5518 -5.6332,5.5519 -1.7505,3.4128 -1.7505,3.4129 -1.8503,5.378 -1.8503,5.378 -1.1731,10.4253 -1.1731,10.4253 1.2413,11.2839 1.2414,11.2838 2.3732,6.3194 2.3733,6.3193 2.2245,3.1807 2.2246,3.1806 4.0441,3.8115 4.0442,3.8114 3,1.6352 3,1.6351 5.5,1.2196 5.5,1.2196 5.3557,0.084 5.3556,0.084 z M 1342,1464.5 v -0.5 h 0.5 0.5 v 0.5 0.5 h -0.5 -0.5 z m -2,-40 v -0.5 h 0.5 0.5 v 0.5 0.5 h -0.5 -0.5 z m 72,-11 v -0.5 h 0.5 0.5 v 0.5 0.5 h -0.5 -0.5 z m -12,-15 v -0.5 h 0.5 0.5 v 0.5 0.5 h -0.5 -0.5 z m -43,-2 v -0.5 h 0.5 0.5 v 0.5 0.5 h -0.5 -0.5 z"
         id="path28"
         inkscape:label="d" />
      <path
         style="fill:#65727a;fill-opacity:1"
         d="m 1165.5,1541.0755 -5,-0.7912 -0.6809,0.3741 -0.6809,0.3742 -0.5924,-0.9585 -0.5924,-0.9585 -4.5603,-0.6839 -4.5603,-0.6839 -10.2023,-5.1239 -10.2023,-5.1239 -4.9641,-3.9447 -4.9641,-3.9447 -5,-5.6979 -5,-5.698 -0.9045,0.5472 -0.9045,0.5471 0.6905,-1.1173 0.6906,-1.1173 -2.4908,-3.9455 -2.4907,-3.9456 -2.4841,-6.1136 -2.4842,-6.1135 -1.9968,-7.7281 -1.9968,-7.7281 -1.2016,-9 -1.2016,-9 0.6353,-16 0.6353,-16 2.9794,-11.2986 2.9795,-11.2985 3.4409,-7.2015 3.441,-7.2014 3.4741,-4.8457 3.4741,-4.8457 4.2787,-4.4893 4.2786,-4.4894 7.0788,-4.7085 7.0788,-4.7085 7,-3.1676 7,-3.1676 9,-2.2186 9,-2.2185 12,0.023 12,0.023 9.5,2.2432 9.5,2.2433 7.3078,3.3747 7.3079,3.3748 6.8176,4.5324 6.8177,4.5324 3.2348,3.2559 3.2347,3.256 5.0043,7 5.0042,7 3.0014,6.5 3.0014,6.5 1.4552,5 1.4552,5 1.4587,7 1.4587,7 0.7226,13.831 0.7226,13.8309 -0.4191,0.4191 -0.419,0.419 H 1203.3333 1139 v 0.75 0.75 l 1.4389,8.1756 1.4388,8.1755 2.2208,5.3245 2.2207,5.3244 3.9001,5.288 3.9001,5.2879 4.1251,2.9882 4.1252,2.9883 5.4583,1.5868 5.4583,1.5867 9.1615,-0.4007 9.1615,-0.4007 5.5508,-2.7157 5.5509,-2.7158 4.8931,-5.6328 4.8932,-5.6327 1.5088,-3.1137 1.5088,-3.1138 24.7412,-0.2675 24.7412,-0.2674 -0.013,0.7674 -0.013,0.7675 -1.8984,6 -1.8983,6 -3.1495,6.9785 -3.1494,6.9785 -1.1893,0.7562 -1.1893,0.7562 0.9725,0.015 0.9725,0.015 -2.2897,1.6038 -2.2896,1.6037 0.5311,1.3843 0.5312,1.3842 -0.714,-0.1572 -0.714,-0.1572 -8.0565,8.06 -8.0564,8.06 -11.4436,5.5343 -11.4435,5.5343 -7.5,1.6733 -7.5,1.6733 -12.5,0.335 -12.5,0.335 z m 52.5,-122.5021 v -1.4265 l -4.0403,-7.9884 -4.0403,-7.9883 -4.2097,-3.6914 -4.2097,-3.6914 -3.5,-1.7253 -3.5,-1.7254 -5.7047,-1.3172 -5.7046,-1.3172 -6.9711,0.5845 -6.9712,0.5844 -5.7159,2.704 -5.7159,2.7041 -4.7381,4.8389 -4.738,4.8388 -2.2529,4.7715 -2.2529,4.7715 -0.7759,2.6747 -0.776,2.6748 0.5753,0.5752 0.5752,0.5753 H 1180.6667 1218 Z M 1200,1395.5 v -0.5 h 0.5 0.5 v 0.5 0.5 h -0.5 -0.5 z"
         id="path27"
         inkscape:label="e" />
      <path
         style="fill:#f9af08;fill-opacity:1"
         d="m 530.5,1542.538 -1,-0.4088 -5.5,-0.5305 -5.5,-0.5305 -3.5,-0.6181 -3.5,-0.6182 -3.5,-1.5439 -3.5,-1.544 -6.5,-3.03 -6.5,-3.0301 -5.41934,-4.0919 -5.41934,-4.092 -3.08066,-3.0264 -3.08066,-3.0263 -2.81518,-3.7424 -2.81518,-3.7424 -0.93482,0.5778 L 467,1510.118 v -1.357 -1.3571 l -3.89575,-7.952 -3.89575,-7.9519 -2.05975,-6.2796 -2.05976,-6.2796 -1.04449,-5.9704 L 453,1467 l -0.99015,-5.75 -0.99015,-5.75 -0.0571,-52.4118 -0.0571,-52.4117 1.29729,-0.8229 1.29729,-0.823 21.62756,-0.015 21.62755,-0.015 1.06522,1.2835 1.06523,1.2835 0.30861,52.9665 0.30862,52.9665 1.81229,5.5 1.81228,5.5 2.18632,4.3545 2.18632,4.3546 4.71066,4.2628 4.71066,4.2629 3.78934,1.8826 3.78934,1.8826 11,-0.042 11,-0.042 3.75,-1.8219 3.75,-1.822 v -0.886 V 1484 h 1.84501 1.84501 l 1.65717,-1.8312 1.65717,-1.8311 -0.50218,-0.6689 L 560,1479 l 0.61122,0.4446 0.61121,0.4445 2.13879,-2.6983 2.13878,-2.6982 1.25,-2.2327 1.25,-2.2328 v -1.8135 -1.8136 l 0.97115,-0.9712 0.97116,-0.9711 1.10273,-7.4789 1.10273,-7.4788 -0.0926,-48.875 -0.0926,-48.875 1.14116,-1.375 1.14116,-1.375 21.62755,0.015 21.62756,0.015 1.34197,0.8506 1.34196,0.8505 -0.12027,54.3842 -0.12027,54.3841 -1.02763,6 -1.02762,6 -1.53314,6 -1.53313,6 -0.52443,2.75 -0.52444,2.75 h -0.93034 -0.93033 l 0.265,1.25 0.26501,1.25 -2.46371,5 -2.46372,5 -4.25745,6.1926 -4.25746,6.1927 v 1.0573 1.0574 h -1.43261 -1.43261 l -0.63478,2 -0.63478,2 h -1.18953 -1.18954 l -2.99307,3.2595 -2.99308,3.2596 -5,2.9605 -5,2.9605 -4,1.9199 -4,1.92 -3,1.4896 -3,1.4897 -4,0.776 -4,0.7761 -2,0.4854 -2,0.4855 -9.5,0.5822 -9.5,0.5823 z"
         id="path26"
         inkscape:label="u" />
    </g>
  </g>
</svg>
