<?xml version="1.0" encoding="iso-8859-1"?>
<!-- Generator: Adobe Illustrator 25.2.0, SVG Export Plug-In . SVG Version: 6.00 Build 0)  -->
<svg version="1.1" id="Layer_1" xmlns="http://www.w3.org/2000/svg" xmlns:xlink="http://www.w3.org/1999/xlink" x="0px" y="0px"
	 viewBox="200 335 600 330" style="enable-background:new 200 300 600 400;" xml:space="preserve">
<g>
	<path style="fill:#FFFFFF;" d="M249.753,661V395.175c0-30.975,25.2-56.175,56.175-56.175h444.318v265.825
		c0,30.975-25.2,56.175-56.174,56.175H249.753z"/>
	<path style="fill:#FFFFFF;" d="M266.276,395.175v249.303h427.796c21.9,0,39.653-17.753,39.653-39.653V355.522H305.929
		C284.029,355.522,266.276,373.276,266.276,395.175z"/>
	<path style="fill:#09347B;" d="M677.18,503.579c25.448-1.635,44.663-1.84,56.544-1.713V355.522H305.929
		c-21.9,0-39.653,17.753-39.653,39.653v235.639c65.116-40.898,144.515-75.091,231.255-98.293
		C568.302,513.59,634.289,506.333,677.18,503.579z"/>
	<path style="fill:#FF0001;" d="M502.654,551.674c-82.671,22.114-158.378,54.349-220.833,92.804h412.25
		c21.9,0,39.653-17.753,39.653-39.653v-82.569C694.671,521.617,603.254,524.764,502.654,551.674z"/>
	<g>
		<path style="fill:#FFFFFF;" d="M352.452,437.109c-3.245-2.666-5.563-4.056-13.327-7.417c-3.94-1.854-11.588-4.751-11.704-11.125
			c0-4.636,4.056-7.533,8.46-7.533c6.837,0,11.125,6.49,12.052,7.765l11.357-12.747c-1.275-1.391-4.867-5.563-10.198-8.112
			c-5.562-2.549-11.588-2.897-13.442-2.897c-4.056,0-15.413,0.579-22.598,10.893c-1.391,2.086-4.172,6.606-4.172,13.443
			c0,10.198,6.142,15.992,9.039,18.31c3.592,2.781,7.648,4.983,11.82,7.069c3.129,1.391,8.46,3.593,10.662,6.953
			c0.927,1.391,1.391,2.897,1.391,4.636c0,5.562-4.636,9.502-9.966,9.502c-6.722,0-11.357-5.215-15.181-9.502l-11.82,12.979
			c1.391,1.391,6.605,6.837,13.095,9.271c5.562,2.086,12.052,2.318,13.79,2.318c2.202,0,8.923-0.232,14.949-3.477
			c2.897-1.507,4.983-3.477,5.795-4.288c2.897-2.666,7.88-8.46,7.88-18.658C360.332,444.758,355.581,439.775,352.452,437.109z"/>
		<path style="fill:#FFFFFF;" d="M435.394,397.245l-10.884,32.216c-1.333,4.172-2.777,8.344-4.109,12.516
			c-1.111,3.94-2.221,7.765-3.332,11.705c-0.555-2.318-1.111-4.636-1.777-6.953c-1.444-4.983-3.11-9.735-4.665-14.601
			l-11.662-34.882h-17.549l-10.996,81.815h16.327l4.11-37.547c0.445-3.941,0.889-7.881,1.222-11.821
			c0.111-3.129,0.222-6.142,0.222-9.271c0.666,2.549,1.221,4.983,1.999,7.417c0.888,3.476,1.999,6.837,3.221,10.198l14.217,41.024
			h10.663l12.995-38.474c2.221-6.837,4.332-13.791,6.22-20.743c0,2.781,0,5.562,0.111,8.343c0.222,3.824,0.667,7.649,0.999,11.473
			l4.665,39.401h16.549l-11.107-81.815H435.394z"/>
		<path style="fill:#FFFFFF;" d="M520.919,397.245h-17.87l-30.368,81.815h17.98l5.701-16.572h32.123l6.03,16.572h18.199
			L520.919,397.245z M501.624,447.076c1.863-5.331,3.618-10.661,5.372-15.992c1.315-3.94,3.508-10.546,4.385-14.486
			c0.328-1.622,0.548-3.361,0.767-4.983c0.768,5.679,1.535,8.344,5.044,18.89c1.863,5.447,3.837,11.01,5.7,16.572H501.624z"/>
	</g>
</g>
</svg>
