<?xml version="1.0" encoding="iso-8859-1"?>
<!-- <?xml version="1.0" encoding="UTF-8"?>
<!DOCTYPE svg PUBLIC "-//W3C//DTD SVG 1.1//EN" "http://www.w3.org/Graphics/SVG/1.1/DTD/svg11.dtd">
<svg xmlns="http://www.w3.org/2000/svg" version="1.1" width="907px" height="312px"
    style="shape-rendering:geometricPrecision; text-rendering:geometricPrecision;
image-rendering:optimizeQuality; fill-rule:evenodd; clip-rule:evenodd"
    xmlns:xlink="http://www.w3.org/1999/xlink"> -->
<!-- Generator: Adobe Illustrator 25.2.0, SVG Export Plug-In . SVG Version: 6.00 Build 0)  -->
<svg version="1.1" id="Layer_1" xmlns="http://www.w3.org/2000/svg"
    xmlns:xlink="http://www.w3.org/1999/xlink" x="0px" y="0px"
    viewBox="0 0 907 312" style="enable-background:new 0 0 907 312;" xml:space="preserve">
    <!-- logo shape -->
    <g transform="scale(0.8) translate(50, 50)">
        <path style="opacity:0.945" fill="#696766"
            d="M 157.5,0.5 C 160.428,1.59136 162.594,3.59136 164,6.5C 167.566,21.499 171.066,36.499 174.5,51.5C 172.581,56.4204 169.248,60.087 164.5,62.5C 160.266,49.9682 156.933,37.3015 154.5,24.5C 154.344,20.4183 154.844,16.4183 156,12.5C 161.256,9.062 161.756,5.062 157.5,0.5 Z" />
        <path style="opacity:0.938" fill="#686766"
            d="M 55.5,35.5 C 59.556,34.1473 63.556,34.6473 67.5,37C 79.0433,46.0496 90.71,54.8829 102.5,63.5C 102.819,68.3633 102.486,73.03 101.5,77.5C 90.0267,71.3634 79.36,64.0301 69.5,55.5C 69.5,54.8333 69.1667,54.5 68.5,54.5C 64.6387,50.9039 62.972,46.5706 63.5,41.5C 62.7009,37.0933 60.0342,35.0933 55.5,35.5 Z" />
        <path style="opacity:0.92" fill="#ef8525"
            d="M 151.5,-0.5 C 153.5,-0.5 155.5,-0.5 157.5,-0.5C 157.5,-0.166667 157.5,0.166667 157.5,0.5C 161.756,5.062 161.256,9.062 156,12.5C 154.844,16.4183 154.344,20.4183 154.5,24.5C 152.285,37.0169 148.952,49.3502 144.5,61.5C 145.77,62.2876 146.77,63.2876 147.5,64.5C 140.833,64.8333 134.167,65.1667 127.5,65.5C 127.5,67.1667 127.5,68.8333 127.5,70.5C 125.167,70.5 122.833,70.5 120.5,70.5C 120.833,69.8333 121.167,69.1667 121.5,68.5C 125.478,66.5216 128.478,63.5216 130.5,59.5C 121.803,46.6351 113.303,33.6351 105,20.5C 106.712,36.1172 108.212,51.7838 109.5,67.5C 108.437,71.6391 107.77,75.9725 107.5,80.5C 104.892,90.8208 98.2251,96.4875 87.5,97.5C 88.2505,104.639 86.9172,111.306 83.5,117.5C 76.2506,121.036 72.5839,118.702 72.5,110.5C 74.8602,106.081 74.8602,101.748 72.5,97.5C 57.8034,93.1555 43.1367,88.8222 28.5,84.5C 40.109,94.7726 51.4423,105.439 62.5,116.5C 62.3505,117.552 62.5172,118.552 63,119.5C 65.1882,122.567 67.3548,125.567 69.5,128.5C 73.4038,138.439 71.7372,147.272 64.5,155C 70.3304,159.828 73.6637,165.995 74.5,173.5C 70.6754,179.728 66.3421,180.061 61.5,174.5C 60.3989,169.727 57.7322,166.06 53.5,163.5C 39.6679,170.221 25.6679,176.554 11.5,182.5C 27.1809,183.372 42.8475,184.372 58.5,185.5C 58.6107,186.117 58.944,186.617 59.5,187C 63.4052,188.359 67.4052,189.192 71.5,189.5C 80.4999,194.825 84.8332,202.825 84.5,213.5C 92.1901,213.184 98.5234,215.851 103.5,221.5C 104.141,228.535 101.141,231.201 94.5,229.5C 91.3089,228.104 87.9756,227.104 84.5,226.5C 83.2284,226.57 82.0617,226.903 81,227.5C 74.7095,241.414 67.8761,255.081 60.5,268.5C 60.6667,268.833 60.8333,269.167 61,269.5C 73.0948,259.565 85.5948,250.231 98.5,241.5C 103.115,239.863 107.449,237.863 111.5,235.5C 122.257,233.468 130.757,236.801 137,245.5C 141.403,241.53 146.57,239.197 152.5,238.5C 161.368,240.504 162.701,244.837 156.5,251.5C 152.015,251.717 148.015,253.217 144.5,256C 143.272,257.49 143.272,258.99 144.5,260.5C 142.974,259.895 141.974,258.729 141.5,257C 141.833,256.667 142.167,256.333 142.5,256C 137.511,255.501 132.511,255.334 127.5,255.5C 128.203,253.284 129.536,251.451 131.5,250C 126.656,243.235 120.323,241.069 112.5,243.5C 112.44,242.957 112.107,242.624 111.5,242.5C 106.812,243.838 102.812,246.171 99.5,249.5C 88.4249,257.068 77.7582,265.234 67.5,274C 57.0401,279.705 52.5401,276.871 54,265.5C 60.6275,253.079 67.1275,240.579 73.5,228C 58.2572,232.244 42.9238,236.41 27.5,240.5C 22.0152,241.101 18.6819,238.767 17.5,233.5C 18.7828,227.228 22.4495,225.228 28.5,227.5C 32.0571,227.113 35.3905,226.113 38.5,224.5C 39.1667,224.5 39.5,224.167 39.5,223.5C 51.8968,219.146 64.5635,215.812 77.5,213.5C 78.0793,204.973 74.4126,199.307 66.5,196.5C 66.5299,195.503 66.0299,194.836 65,194.5C 60.8334,192.806 56.6667,192.139 52.5,192.5C 38.5912,191.123 24.5912,190.289 10.5,190C 3.6814,189.522 1.1814,186.022 3,179.5C 4.55779,177.641 6.39113,176.141 8.5,175C 21.4273,170.201 34.094,164.867 46.5,159C 35.9427,153.367 24.9427,148.701 13.5,145C 7.86311,143.033 3.19645,139.867 -0.5,135.5C -0.5,132.833 -0.5,130.167 -0.5,127.5C -0.166667,127.5 0.166667,127.5 0.5,127.5C 5.68698,124.093 9.68698,125.093 12.5,130.5C 15.4979,132.668 18.8313,133.668 22.5,133.5C 29.9453,136.934 37.6119,140.1 45.5,143C 50.2418,145.12 54.7418,147.62 59,150.5C 64.7324,144.644 65.8991,137.978 62.5,130.5C 60.9451,125.379 57.9451,121.379 53.5,118.5C 44.1623,108.997 34.329,99.9973 24,91.5C 21.9728,88.7789 20.4728,85.7789 19.5,82.5C 20.6708,78.8284 23.1708,76.8284 27,76.5C 41.3159,80.3274 55.4825,84.6607 69.5,89.5C 70.5827,88.635 70.7494,87.635 70,86.5C 63.6326,74.1469 57.2993,61.8136 51,49.5C 50.6892,47.444 50.1892,45.444 49.5,43.5C 50.0873,39.6131 52.0873,36.9464 55.5,35.5C 60.0342,35.0933 62.7009,37.0933 63.5,41.5C 62.972,46.5706 64.6387,50.9039 68.5,54.5C 69.1667,54.5 69.5,54.8333 69.5,55.5C 75.3518,66.5393 80.6851,77.8726 85.5,89.5C 88.6262,90.4189 91.6262,89.9189 94.5,88C 97.7119,85.0733 100.045,81.5733 101.5,77.5C 102.486,73.03 102.819,68.3633 102.5,63.5C 101.654,52.4197 100.154,41.4197 98,30.5C 97.0968,24.7194 97.4301,19.0527 99,13.5C 103.447,10.7708 107.447,11.4374 111,15.5C 118.272,27.768 125.939,39.768 134,51.5C 137.986,36.5931 141.652,21.5931 145,6.5C 146.694,3.64238 148.861,1.30904 151.5,-0.5 Z M 121.5,68.5 C 120.305,68.6775 119.138,69.0109 118,69.5C 115.209,68.5938 112.376,67.9272 109.5,67.5C 108.212,51.7838 106.712,36.1172 105,20.5C 113.303,33.6351 121.803,46.6351 130.5,59.5C 128.478,63.5216 125.478,66.5216 121.5,68.5 Z M 69.5,55.5 C 79.36,64.0301 90.0267,71.3634 101.5,77.5C 100.045,81.5733 97.7119,85.0733 94.5,88C 91.6262,89.9189 88.6262,90.4189 85.5,89.5C 80.6851,77.8726 75.3518,66.5393 69.5,55.5 Z M 28.5,84.5 C 43.1367,88.8222 57.8034,93.1555 72.5,97.5C 74.8602,101.748 74.8602,106.081 72.5,110.5C 69.8023,113.517 66.4689,115.517 62.5,116.5C 51.4423,105.439 40.109,94.7726 28.5,84.5 Z M 62.5,130.5 C 65.8991,137.978 64.7324,144.644 59,150.5C 54.7418,147.62 50.2418,145.12 45.5,143C 37.6119,140.1 29.9453,136.934 22.5,133.5C 36.0101,134.095 49.3435,133.095 62.5,130.5 Z" />
        <path style="opacity:0.947" fill="#696767"
            d="M 256.5,37.5 C 258.162,39.2244 259.162,41.3911 259.5,44C 258.744,46.8561 257.911,49.6894 257,52.5C 249.762,64.3087 243.596,76.642 238.5,89.5C 233.457,91.2633 228.457,91.5966 223.5,90.5C 228.105,77.9592 233.771,65.9592 240.5,54.5C 242.337,51.8947 244.67,49.728 247.5,48C 255.505,48.5084 258.505,45.0084 256.5,37.5 Z" />
        <path style="opacity:0.951" fill="#6c6967"
            d="M 109.5,67.5 C 112.376,67.9272 115.209,68.5938 118,69.5C 119.138,69.0109 120.305,68.6775 121.5,68.5C 121.167,69.1667 120.833,69.8333 120.5,70.5C 118.076,72.9203 117.909,75.587 120,78.5C 121.789,80.229 123.956,80.8957 126.5,80.5C 120.316,82.8818 113.983,82.8818 107.5,80.5C 107.77,75.9725 108.437,71.6391 109.5,67.5 Z" />
        <path style="opacity:0.929" fill="#6b6866"
            d="M 235.5,97.5 C 234.38,101.472 234.38,105.472 235.5,109.5C 229.336,105.693 225.669,107.36 224.5,114.5C 221.647,109.161 220.98,103.494 222.5,97.5C 227.041,97.1574 231.374,97.1574 235.5,97.5 Z" />
        <path style="opacity:0.922" fill="#6b6867"
            d="M 72.5,110.5 C 72.5839,118.702 76.2506,121.036 83.5,117.5C 80.0056,122.661 75.3389,126.328 69.5,128.5C 67.3548,125.567 65.1882,122.567 63,119.5C 62.5172,118.552 62.3505,117.552 62.5,116.5C 66.4689,115.517 69.8023,113.517 72.5,110.5 Z" />
        <path style="opacity:0.936" fill="#686666"
            d="M 53.5,118.5 C 57.9451,121.379 60.9451,125.379 62.5,130.5C 49.3435,133.095 36.0101,134.095 22.5,133.5C 18.8313,133.668 15.4979,132.668 12.5,130.5C 9.68698,125.093 5.68698,124.093 0.5,127.5C 1.59495,124.265 3.92829,122.432 7.5,122C 23.0043,121.126 38.3377,119.96 53.5,118.5 Z" />
        <path style="opacity:0.937" fill="#696767"
            d="M 286.5,133.5 C 290.182,133.335 293.848,133.501 297.5,134C 301.638,137.386 305.638,137.219 309.5,133.5C 308.817,137.02 306.817,139.52 303.5,141C 292.328,146.057 280.995,150.724 269.5,155C 266.761,156.026 264.428,157.526 262.5,159.5C 257.314,157.925 253.314,154.925 250.5,150.5C 254.443,147.522 258.777,145.022 263.5,143C 271.388,140.1 279.055,136.934 286.5,133.5 Z" />

        <path style="opacity:0.919" fill="#6d6a68"
            d="M 244.5,155.5 C 248.352,157.925 252.019,160.591 255.5,163.5C 252.09,165.906 249.424,168.906 247.5,172.5C 244.893,165.912 240.893,164.912 235.5,169.5C 236.492,163.51 239.492,158.844 244.5,155.5 Z" />
        <path style="opacity:0.913" fill="#ef8424"
            d="M 256.5,37.5 C 258.505,45.0084 255.505,48.5084 247.5,48C 244.67,49.728 242.337,51.8947 240.5,54.5C 231,63.4949 220.5,71.1615 209,77.5C 210.108,85.7672 214.942,90.1005 223.5,90.5C 228.457,91.5966 233.457,91.2633 238.5,89.5C 252.9,84.8671 267.4,80.5337 282,76.5C 286.045,76.8785 288.545,79.0452 289.5,83C 288.856,86.3045 287.356,89.1378 285,91.5C 274.691,99.9753 264.858,108.975 255.5,118.5C 270.799,119.958 286.132,121.124 301.5,122C 307.74,123.305 310.406,127.138 309.5,133.5C 305.638,137.219 301.638,137.386 297.5,134C 293.848,133.501 290.182,133.335 286.5,133.5C 273.16,134.064 259.993,133.064 247,130.5C 242.931,138.206 244.098,144.872 250.5,150.5C 253.314,154.925 257.314,157.925 262.5,159.5C 274.351,164.619 286.351,169.452 298.5,174C 304.851,175.989 307.351,180.156 306,186.5C 305.097,187.701 303.931,188.535 302.5,189C 287.049,190.014 271.715,191.347 256.5,193C 267.667,203.5 278.833,214 290,224.5C 293.454,229.156 293.287,233.49 289.5,237.5C 282.646,239.508 278.813,236.842 278,229.5C 275.618,227.611 273.118,225.945 270.5,224.5C 270.5,223.833 270.167,223.5 269.5,223.5C 259.553,215.222 250.22,206.222 241.5,196.5C 234.316,199.864 230.983,205.531 231.5,213.5C 231.5,214.167 231.5,214.833 231.5,215.5C 229.833,215.5 228.167,215.5 226.5,215.5C 226.5,216.5 226.5,217.5 226.5,218.5C 225.833,216.833 225.167,215.167 224.5,213.5C 223.941,202.438 228.607,194.605 238.5,190C 234.67,183.446 233.67,176.613 235.5,169.5C 240.893,164.912 244.893,165.912 247.5,172.5C 246.612,178.381 248.612,182.714 253.5,185.5C 268.149,184.295 282.815,183.295 297.5,182.5C 283.303,176.548 269.303,170.214 255.5,163.5C 252.019,160.591 248.352,157.925 244.5,155.5C 237.354,147.956 235.687,139.29 239.5,129.5C 234.3,126.81 229.8,123.144 226,118.5C 225.209,117.255 224.709,115.922 224.5,114.5C 225.669,107.36 229.336,105.693 235.5,109.5C 237.296,110.793 238.963,112.293 240.5,114C 242.65,115.59 244.983,116.257 247.5,116C 257.928,104.972 268.928,94.6383 280.5,85C 279.167,84.3333 277.833,84.3333 276.5,85C 263.026,89.8807 249.36,94.0474 235.5,97.5C 231.374,97.1574 227.041,97.1574 222.5,97.5C 211.422,96.6326 204.088,90.9659 200.5,80.5C 193.546,83.3534 186.88,83.0201 180.5,79.5C 177,72.8344 179,69.1677 186.5,68.5C 190.854,69.3396 195.188,69.0063 199.5,67.5C 200.789,51.7806 202.289,36.114 204,20.5C 195.671,33.6527 187.171,46.6527 178.5,59.5C 174.518,61.8169 171.185,64.8169 168.5,68.5C 159.333,73.8057 150.166,73.8057 141,68.5C 137.488,74.1854 132.655,78.1854 126.5,80.5C 123.956,80.8957 121.789,80.229 120,78.5C 117.909,75.587 118.076,72.9203 120.5,70.5C 122.833,70.5 125.167,70.5 127.5,70.5C 127.5,68.8333 127.5,67.1667 127.5,65.5C 134.167,65.1667 140.833,64.8333 147.5,64.5C 153.474,66.2115 159.14,65.5448 164.5,62.5C 169.248,60.087 172.581,56.4204 174.5,51.5C 176.803,49.022 178.969,46.3553 181,43.5C 186.604,33.5681 192.604,23.9014 199,14.5C 208.265,9.39508 212.432,12.2284 211.5,23C 209.526,36.48 208.026,49.98 207,63.5C 218.5,54.6667 230,45.8333 241.5,37C 245.262,34.8438 249.262,34.1771 253.5,35C 254.942,35.3768 255.942,36.2101 256.5,37.5 Z M 186.5,68.5 C 183.149,66.1463 180.482,63.1463 178.5,59.5C 187.171,46.6527 195.671,33.6527 204,20.5C 202.289,36.114 200.789,51.7806 199.5,67.5C 195.188,69.0063 190.854,69.3396 186.5,68.5 Z" />
        <path style="opacity:0.916" fill="#6a6867"
            d="M 178.5,59.5 C 180.482,63.1463 183.149,66.1463 186.5,68.5C 179,69.1677 177,72.8344 180.5,79.5C 175.243,77.2451 171.243,73.5784 168.5,68.5C 171.185,64.8169 174.518,61.8169 178.5,59.5 Z" />
        <path style="opacity:0.925" fill="#6d6967"
            d="M 74.5,173.5 C 74.7659,179.097 73.7659,184.43 71.5,189.5C 67.4052,189.192 63.4052,188.359 59.5,187C 58.944,186.617 58.6107,186.117 58.5,185.5C 60.3757,182.079 61.3757,178.412 61.5,174.5C 66.3421,180.061 70.6754,179.728 74.5,173.5 Z" />
        <path style="opacity:0.934" fill="#686766"
            d="M 66.5,196.5 C 58.4729,206.527 49.4729,215.527 39.5,223.5C 38.8333,223.5 38.5,223.833 38.5,224.5C 35.3905,226.113 32.0571,227.113 28.5,227.5C 22.4495,225.228 18.7828,227.228 17.5,233.5C 16.528,230.48 17.028,227.48 19,224.5C 30.3651,213.967 41.5318,203.3 52.5,192.5C 56.6667,192.139 60.8334,192.806 65,194.5C 66.0299,194.836 66.5299,195.503 66.5,196.5 Z" />
        <path style="opacity:0.918" fill="#6e6a68"
            d="M 224.5,213.5 C 225.167,215.167 225.833,216.833 226.5,218.5C 227.092,221.127 227.425,223.794 227.5,226.5C 223.168,226.279 219.168,227.279 215.5,229.5C 218.354,222.374 216.021,218.707 208.5,218.5C 213.162,214.996 218.495,213.329 224.5,213.5 Z" />
        <path style="opacity:0.942" fill="#686766"
            d="M 231.5,213.5 C 244.437,215.812 257.103,219.146 269.5,223.5C 270.167,223.5 270.5,223.833 270.5,224.5C 273.118,225.945 275.618,227.611 278,229.5C 278.813,236.842 282.646,239.508 289.5,237.5C 288.942,238.79 287.942,239.623 286.5,240C 283.167,240.667 279.833,240.667 276.5,240C 262.905,235.523 249.239,231.357 235.5,227.5C 233.572,223.715 232.238,219.715 231.5,215.5C 231.5,214.833 231.5,214.167 231.5,213.5 Z" />
        <path style="opacity:0.916" fill="#ef8524"
            d="M 231.5,215.5 C 232.238,219.715 233.572,223.715 235.5,227.5C 241.144,239.456 247.311,251.123 254,262.5C 258.839,274.311 255.339,278.478 243.5,275C 232.333,266.5 221.167,258 210,249.5C 210.391,260.909 211.724,272.242 214,283.5C 214.667,288.833 214.667,294.167 214,299.5C 212.241,303.764 209.074,305.764 204.5,305.5C 202.056,304.129 200.722,301.962 200.5,299C 203.12,293.504 203.12,288.004 200.5,282.5C 198.098,269.616 196.598,256.616 196,243.5C 188.114,241.19 181.948,243.523 177.5,250.5C 175.827,251.343 174.66,252.676 174,254.5C 172.57,257.353 171.737,260.353 171.5,263.5C 168.1,275.993 165.267,288.66 163,301.5C 161.93,305.311 160.097,308.644 157.5,311.5C 155.5,311.5 153.5,311.5 151.5,311.5C 149.512,309.535 148.012,307.202 147,304.5C 144.411,293.553 142.077,282.553 140,271.5C 139.583,268.578 138.583,265.911 137,263.5C 129.417,274.998 122.083,286.665 115,298.5C 111.359,304.406 106.193,306.573 99.5,305C 98.944,304.617 98.6107,304.117 98.5,303.5C 97.4448,300.927 97.2782,298.261 98,295.5C 103.93,293.076 107.43,288.742 108.5,282.5C 113.892,274.735 119.058,266.735 124,258.5C 125.039,257.29 126.206,256.29 127.5,255.5C 132.511,255.334 137.511,255.501 142.5,256C 142.167,256.333 141.833,256.667 141.5,257C 141.974,258.729 142.974,259.895 144.5,260.5C 147.71,274.555 151.043,288.555 154.5,302.5C 158.036,287.491 161.703,272.491 165.5,257.5C 167.805,253.568 170.138,249.568 172.5,245.5C 174.577,241.776 177.577,238.943 181.5,237C 186.75,235.826 192.084,235.159 197.5,235C 199.058,228.038 202.725,222.538 208.5,218.5C 216.021,218.707 218.354,222.374 215.5,229.5C 212.023,232.782 210.523,236.782 211,241.5C 223.692,250.348 236.025,259.681 248,269.5C 241.212,255.254 234.379,240.92 227.5,226.5C 227.425,223.794 227.092,221.127 226.5,218.5C 226.5,217.5 226.5,216.5 226.5,215.5C 228.167,215.5 229.833,215.5 231.5,215.5 Z M 227.5,226.5 C 234.379,240.92 241.212,255.254 248,269.5C 236.025,259.681 223.692,250.348 211,241.5C 210.523,236.782 212.023,232.782 215.5,229.5C 219.168,227.279 223.168,226.279 227.5,226.5 Z M 200.5,282.5 C 195.108,274.735 189.942,266.735 185,258.5C 182.715,255.568 180.215,252.902 177.5,250.5C 181.948,243.523 188.114,241.19 196,243.5C 196.598,256.616 198.098,269.616 200.5,282.5 Z" />
        <path style="opacity:0.92" fill="#6f6b68"
            d="M 103.5,221.5 C 107.701,225.228 110.367,229.895 111.5,235.5C 107.449,237.863 103.115,239.863 98.5,241.5C 98.2939,237.096 96.9605,233.096 94.5,229.5C 101.141,231.201 104.141,228.535 103.5,221.5 Z" />
        <path style="opacity:0.926" fill="#6d6a68"
            d="M 152.5,238.5 C 160.052,238.461 166.719,240.794 172.5,245.5C 170.138,249.568 167.805,253.568 165.5,257.5C 162.982,254.744 159.982,252.744 156.5,251.5C 162.701,244.837 161.368,240.504 152.5,238.5 Z" />
        <path style="opacity:0.938" fill="#696766"
            d="M 112.5,243.5 C 112.564,256.651 111.231,269.651 108.5,282.5C 107.43,288.742 103.93,293.076 98,295.5C 97.2782,298.261 97.4448,300.927 98.5,303.5C 96.665,302.878 95.4983,301.544 95,299.5C 94.8333,297 94.6667,294.5 94.5,292C 96.3311,277.848 97.9978,263.681 99.5,249.5C 102.812,246.171 106.812,243.838 111.5,242.5C 112.107,242.624 112.44,242.957 112.5,243.5 Z" />
        <path style="opacity:0.94" fill="#696767"
            d="M 177.5,250.5 C 180.215,252.902 182.715,255.568 185,258.5C 189.942,266.735 195.108,274.735 200.5,282.5C 203.12,288.004 203.12,293.504 200.5,299C 200.722,301.962 202.056,304.129 204.5,305.5C 200.114,304.634 196.614,302.301 194,298.5C 186.974,286.429 179.474,274.762 171.5,263.5C 171.737,260.353 172.57,257.353 174,254.5C 174.66,252.676 175.827,251.343 177.5,250.5 Z" />
    </g>
    <!-- Solis name -->
    <g transform="translate(-80, 0)">
        <!-- O -->
        <path style="opacity:0.949" fill="#ef8422" fill-rule="evenodd"
            d="M 585.5,76.5 C 605.126,73.7201 622.792,78.2201 638.5,90C 651.138,102.112 658.305,116.945
        660,134.5C 662.634,154.697 661.634,174.697 657,194.5C 649.12,219.38 632.286,233.88
        606.5,238C 565.438,240.273 541.605,221.106 535,180.5C 531.846,157.775 533.513,135.442
        540,113.5C 548.97,93.4453 564.137,81.112 585.5,76.5 Z M 592.5,91.5 C 623.753,92.2514
        640.586,108.251 643,139.5C 643.667,151.5 643.667,163.5 643,175.5C 641.923,199.89
        629.757,215.39 606.5,222C 591.403,224.56 578.07,220.893 566.5,211C 557.595,201.305
        552.762,189.805 552,176.5C 551.333,163.833 551.333,151.167 552,138.5C 553.642,112.372
        567.142,96.7056 592.5,91.5 Z" />
        <!-- i -->
        <path style="opacity:0.899" fill="#ef8321"
            d="M 752.5,78.5 C 758.167,78.5 763.833,78.5 769.5,78.5C 769.5,131.167 769.5,183.833 769.5,236.5C 763.833,236.5 758.167,236.5 752.5,236.5C 752.5,183.833 752.5,131.167 752.5,78.5 Z" />
        <!-- s -->
        <path style="opacity:0.923" fill="#ef8423"
            d="M 906.5,182.5 C 906.5,187.833 906.5,193.167 906.5,198.5C 902.85,215.994 892.517,227.827 875.5,234C 848.88,241.776 823.213,239.443 798.5,227C 793.397,223.734 788.73,219.9 784.5,215.5C 788.167,211.167 792.167,207.167 796.5,203.5C 806.138,214.112 818.138,220.279 832.5,222C 845.385,223.352 858.052,222.352 870.5,219C 889.097,209.885 894.264,195.718 886,176.5C 880.867,170.516 874.367,167.016 866.5,166C 853.82,164.787 841.154,163.453 828.5,162C 797.232,155.374 785.732,136.541 794,105.5C 799.821,91.6797 809.988,82.8464 824.5,79C 845.033,74.4302 865.033,76.0969 884.5,84C 889.267,86.438 893.767,89.2713 898,92.5C 898.667,93.1667 898.667,93.8333 898,94.5C 894.645,97.8551 891.312,101.188 888,104.5C 868.639,91.7456 847.806,88.579 825.5,95C 811.026,102.043 805.526,113.543 809,129.5C 811.072,136.573 815.572,141.406 822.5,144C 826.723,145.472 831.057,146.472 835.5,147C 847.854,148.153 860.187,149.487 872.5,151C 891.482,153.489 902.815,163.989 906.5,182.5 Z" />
        <!-- s -->
        <path style="opacity:0.928" fill="#ef8422"
            d="M 447.5,76.5 C 467.57,74.3999 486.57,77.8999 504.5,87C 507.756,88.4589 510.423,90.6255 512.5,93.5C 509.114,97.3831 505.614,101.05 502,104.5C 485.131,92.9926 466.631,89.1593 446.5,93C 426.526,98.44 419.026,111.273 424,131.5C 427.886,139.704 434.386,144.538 443.5,146C 457.824,147.732 472.157,149.399 486.5,151C 513.075,156.271 524.241,172.438 520,199.5C 514.49,221.002 500.656,233.502 478.5,237C 451.989,241.965 427.655,236.965 405.5,222C 403.316,219.984 401.316,217.817 399.5,215.5C 402.71,211.079 406.377,207.079 410.5,203.5C 427.949,219.869 448.616,226.036 472.5,222C 497.773,218.412 507.606,204.245 502,179.5C 498.279,173.128 492.779,168.961 485.5,167C 471.21,165.004 456.876,163.338 442.5,162C 413.94,156.384 402.107,139.217 407,110.5C 409.972,99.0511 416.472,90.2177 426.5,84C 433.295,80.571 440.295,78.071 447.5,76.5 Z" />
        <!-- . -->
        <path style="opacity:0.927" fill="#ef8525"
            d="M 757.5,24.5 C 766.8,23.6448 772.134,27.8115 773.5,37C 770.584,50.0124 763.418,53.1791 752,46.5C 746.648,37.239 748.482,29.9056 757.5,24.5 Z" />

        <!-- l -->
        <path style="opacity:0.93" fill="#ef8422"
            d="M 681.5,26.5 C 687.167,26.5 692.833,26.5 698.5,26.5C 698.333,85.8343 698.5,145.168 699,204.5C 699.955,211.265 703.455,216.099 709.5,219C 717.08,220.396 724.747,220.896 732.5,220.5C 732.5,225.833 732.5,231.167 732.5,236.5C 725.159,236.666 717.826,236.5 710.5,236C 695.122,233.623 685.956,224.789 683,209.5C 681.519,148.537 681.019,87.5375 681.5,26.5 Z" />

    </g>
</svg>