<?xml version="1.0" encoding="utf-8"?>
<!-- Generator: Adobe Illustrator 19.2.1, SVG Export Plug-In . SVG Version: 6.00 Build 0)  -->
<svg version="1.1" id="layer" xmlns="http://www.w3.org/2000/svg" xmlns:xlink="http://www.w3.org/1999/xlink" x="0px" y="0px"
	 viewBox="0 230 652 120" style="enable-background:new 0 250 652 150;" xml:space="preserve">
<style type="text/css">
	.st0{fill:#EE7203;}
	.st1{fill:#646363;}
</style>
<path class="st0" d="M520.5,286.6c2.6-1.7,5.5-3,8.5-3.9v34.2c-3.4,7.9-30.6,7.4-36.1,7.4s-32.6,0.5-36.1-7.4v-8.1
	c0-2.1,1.1-4,2.8-5.2c2.6-1.7,5.5-3,8.5-3.9v12.4c0,0.1,0.4,2.2,24.8,2.2c24.8,0,24.8-2.2,24.8-2.2v-20.4
	C517.7,289.6,518.8,287.7,520.5,286.6 M492.8,256.3c-5.5,0-32.6-0.5-36.1,7.4V298c3-0.9,5.8-2.2,8.5-3.9c1.8-1.1,2.8-3.1,2.8-5.2
	v-20.5c0,0,0-2.3,24.8-2.3s24.8,2.3,24.8,2.3v12.5c3-0.9,5.8-2.2,8.5-3.9c1.8-1.1,2.8-3.1,2.8-5.2v-8.1
	C525.5,255.8,498.4,256.3,492.8,256.3 M170.4,312.1c0,0,0,2.2-24.3,2.2s-24.3-2.2-24.3-2.2v-54.9h-11.3v59.6
	c3.4,7.9,30.2,7.4,35.6,7.4c5.5,0,32.1,0.5,35.6-7.4v-59.6h-11.3V312.1z M609.4,257.2V309l-26.7-26.7L556.1,309v-51.8h-10.6v66.2
	h7.5c1.8,0,3.5-0.7,4.8-2l25-25.1l25.1,25.1c1.3,1.3,3,2,4.8,2h7.5v-66.1H609.4z M353.7,284.3h-29.8c-2.1,0-4,1.1-5.2,2.8
	c-1.5,2.4-2.7,5-3.5,7.7H346c0,0,1.2,0,1.2,9c0,7.8-1.2,7.8-1.2,7.8h-48.7c0,0-2.1,0-2.1-21.3s2.1-21.3,2.1-21.3h50.1
	c2.3,0,4.4-1.1,5.6-3c1.7-2.7,3.1-5.6,4-8.7h-65.6c-7.2,3.2-6.8,28.1-6.8,33.1c0,5-0.4,29.9,6.8,33h62.4c4.2-1.9,4-16.6,4-19.5
	S358,286.2,353.7,284.3 M436.2,294.8c4.2-1.9,4-15.8,4-18.8c0-3,0.3-16.9-4-18.8h-62.6V269h54.9c0,0,1.2,0,1.2,7.1
	c0,8.3-1.2,8.3-1.2,8.3h-54.9v39.1h10.7v-28.6h17.8l26.5,26.5c1.3,1.3,3,2,4.7,2h13.4l-28.5-28.6H436.2z M80.8,284.3H34
	c-1.8,0-3.3-1.5-3.3-3.3c0,0,0,0,0-0.1v-8.6c0-1.8,1.4-3.3,3.2-3.4c0,0,0.1,0,0.1,0h50.2c2.3,0,4.4-1.1,5.6-3c1.7-2.7,3.1-5.6,4-8.7
	H34c-13.9,0-13.9,12.1-13.9,12.1v13.4c0,0,0,12.1,13.9,12.1h46.8c1.8,0,3.4,1.4,3.4,3.3c0,0,0,0.1,0,0.1v10c0,1.8-1.4,3.4-3.3,3.4
	c0,0-0.1,0-0.1,0H29.8c-2.3,0-4.4,1.1-5.6,3c-1.7,2.7-3.1,5.6-4,8.7h60.7c13.9,0,13.9-12.1,13.9-12.1v-14.8
	C94.7,296.4,94.7,284.3,80.8,284.3 M259.1,308.2l-48.9-48.9c-1.3-1.3-3-2-4.8-2h-7.2v66.2h11.3v-50.9l48.9,48.9c1.3,1.3,3,2,4.8,2
	h7.2v-66.2h-11.3L259.1,308.2z"/>
<!-- <path class="st1" d="M112.9,376.7c-2.6-3.1-4-7.1-3.8-11.1c-0.2-4,1.1-8,3.8-11.1c2.6-2.8,6.4-4.3,10.2-4.1c3.1,0,6,1,8.5,2.8
	c2.3,1.7,3.8,4.2,4.2,7.1h-1.3c-0.9,0-1.7-0.6-2.1-1.4c-0.6-1.5-1.6-2.8-2.9-3.8c-1.8-1.3-4.1-2.1-6.3-2c-3-0.1-6,1.1-8,3.4
	c-2.1,2.6-3.2,5.8-3,9.2c-0.2,3.4,0.9,6.6,3,9.3c2,2.3,4.9,3.6,8,3.4c2.3,0.1,4.5-0.6,6.4-1.8c1.3-0.8,2.2-2,2.8-3.4
	c0.3-0.8,1.2-1.4,2.1-1.4h1.4c-0.4,2.7-2,5.2-4.2,6.7c-2.5,1.7-5.5,2.6-8.5,2.5C119.3,381.1,115.6,379.5,112.9,376.7 M142.9,380.6
	v-30.6h1.1c1,0,1.8,0.8,1.8,1.8c0,0,0,0,0,0v28.9L142.9,380.6z M170.4,373.9h1.6c-0.3,2-1.5,3.8-3.2,4.9c-1.9,1.3-4.2,2-6.5,1.9
	c-2.9,0.1-5.8-1-7.7-3.2c-2-2.5-3-5.6-2.8-8.7c-0.2-3.2,0.8-6.3,2.8-8.7c1.9-2.2,4.7-3.4,7.6-3.3c2.8-0.1,5.5,1,7.4,3.1
	c1.9,2.3,2.9,5.3,2.7,8.3v1.3h-17.6v0.1c-0.1,2.3,0.6,4.5,2.1,6.3c1.4,1.6,3.5,2.4,5.6,2.3c1.6,0,3.1-0.4,4.4-1.2
	c0.8-0.5,1.5-1.3,1.9-2.1C169.2,374.3,169.8,373.9,170.4,373.9 M157,361.6c-1.4,1.5-2.2,3.6-2.2,5.6h14.6c0.1-2.1-0.6-4.1-2-5.6
	c-1.3-1.4-3.2-2.2-5.2-2.2C160.3,359.3,158.4,360.1,157,361.6 M180.7,379c-1.4-1.2-2.2-3-2.2-4.9c-0.1-1.8,0.7-3.6,2.2-4.7
	c1.9-1.3,4.1-2,6.4-2l7.2-0.5v-2c0.1-1.5-0.5-2.9-1.6-4c-1.2-1-2.8-1.5-4.4-1.4c-1.4-0.1-2.9,0.4-4.1,1.2c-0.7,0.5-1.3,1.3-1.7,2.2
	c-0.3,0.7-0.9,1.1-1.7,1.1h-1.4c0.1-2,1.1-3.9,2.7-5c1.8-1.4,4-2.1,6.2-2c2.3-0.1,4.6,0.6,6.4,2.1c1.6,1.4,2.5,3.5,2.4,5.6v16h-2.8
	v-4.5c-0.7,1.4-1.8,2.6-3.1,3.4c-1.5,0.9-3.2,1.3-4.9,1.3C184.4,380.9,182.4,380.2,180.7,379 M192.3,376.4c1.4-1.1,2.2-2.9,2.1-4.7
	v-2.6l-6.9,0.5c-4,0.3-6,1.7-6,4.4c0,1.2,0.5,2.3,1.5,3.1c1.1,0.8,2.5,1.3,4,1.2C189,378.4,190.9,377.7,192.3,376.4 M203.3,380.6
	v-23.4h0.9c1,0,1.8,0.8,1.8,1.7c0,0,0,0,0,0v2.6h0.1c0.6-1.4,1.7-2.6,3-3.4c1.5-0.8,3.2-1.3,4.9-1.2c2.3-0.1,4.5,0.7,6.2,2.3
	c1.6,1.7,2.4,4,2.3,6.3v15.1h-2.8v-14.6c0.1-1.8-0.5-3.5-1.7-4.8c-1.3-1.2-3-1.8-4.7-1.7c-1.9-0.1-3.8,0.7-5.1,2.1
	c-1.3,1.4-2,3.4-1.9,5.3v13.8L203.3,380.6z M282.4,377.6c-2.1-2.4-3.1-5.5-3-8.7c-0.2-3.2,0.9-6.3,3-8.7c4.4-4.3,11.4-4.3,15.8,0
	c2.1,2.4,3.1,5.5,3,8.7c0.2,3.2-0.9,6.3-3,8.7C293.8,381.9,286.8,381.9,282.4,377.6 M296.1,375.7c1.5-2,2.3-4.4,2.1-6.9
	c0.1-2.5-0.6-4.9-2.1-6.9c-3-3.2-7.9-3.4-11.1-0.4c-0.1,0.1-0.3,0.3-0.4,0.4c-1.5,2-2.2,4.4-2.1,6.9c-0.1,2.5,0.6,4.9,2.1,6.9
	c3,3.2,8,3.3,11.1,0.4C295.8,376,295.9,375.8,296.1,375.7 M358.4,373.9h1.6c-0.4,2-1.5,3.8-3.2,4.9c-1.9,1.3-4.2,2-6.5,1.9
	c-2.9,0.1-5.8-1-7.7-3.2c-2-2.5-3-5.6-2.8-8.7c-0.2-3.2,0.8-6.3,2.8-8.7c1.9-2.2,4.7-3.4,7.6-3.3c2.8-0.1,5.5,1,7.4,3.1
	c1.9,2.3,2.9,5.3,2.8,8.3v1.3h-17.6v0.1c-0.1,2.3,0.6,4.5,2.1,6.3c1.4,1.6,3.5,2.4,5.6,2.3c1.6,0,3.1-0.4,4.4-1.2
	c0.8-0.5,1.5-1.3,1.9-2.1C357.2,374.3,357.8,373.9,358.4,373.9 M345.1,361.6c-1.4,1.5-2.2,3.6-2.2,5.6h14.6c0.1-2.1-0.6-4.1-2-5.6
	C352.6,358.7,348,358.7,345.1,361.6C345.1,361.5,345.1,361.5,345.1,361.6 M271.8,360.2c2,2.5,3,5.5,2.8,8.7c0.1,3.1-0.9,6.2-2.8,8.7
	c-3,3.6-8.2,4.4-12.1,1.9c-1.4-0.9-2.5-2.2-3.1-3.7v12h-2.8v-30.6h0.9c1,0,1.8,0.8,1.8,1.7c0,0,0,0,0,0v3.1h0
	c0.6-1.5,1.7-2.8,3.1-3.7C263.6,355.8,268.8,356.6,271.8,360.2 M269.6,375.7c1.5-2,2.2-4.4,2.1-6.8c0.1-2.4-0.6-4.9-2.1-6.8
	c-2.5-3-6.9-3.5-9.9-1c-0.4,0.3-0.7,0.6-1,1c-1.5,1.9-2.3,4.3-2.2,6.8c-0.1,2.4,0.6,4.8,2.1,6.8c2.5,3,6.9,3.5,9.9,1
	C268.9,376.3,269.2,376,269.6,375.7 M336,357.1l-6.7,23.4h-3l-5.9-19.5l-5.9,19.5h-3l-6.7-23.4h1.5c0.8,0,1.5,0.5,1.7,1.3l5,18.9
	l5.9-20.2h2.9l5.9,20.2l5-18.9c0.2-0.8,0.9-1.3,1.7-1.3H336z M367.3,380.6v-23.4h0.9c1,0,1.8,0.8,1.8,1.8c0,0,0,0,0,0v2.4h0.1
	c0.7-2.7,3.2-4.5,5.9-4.4c0.3,0,0.6,0,1,0.1c0.3,0,0.5,0.1,0.8,0.1v2.8c-0.3-0.1-0.6-0.2-0.9-0.2c-0.4-0.1-0.8-0.1-1.2-0.1
	c-1.5-0.1-3,0.6-4,1.8c-1,1.3-1.6,2.9-1.5,4.6v14.5L367.3,380.6z M493.7,379c-1.4-1.2-2.2-3-2.2-4.9c-0.1-1.8,0.7-3.6,2.2-4.7
	c1.9-1.3,4.1-2,6.4-2l7.2-0.5v-2c0.1-1.5-0.5-2.9-1.6-4c-1.2-1-2.8-1.5-4.4-1.4c-1.5-0.1-2.9,0.4-4.1,1.2c-0.7,0.6-1.3,1.3-1.7,2.2
	c-0.3,0.7-0.9,1.1-1.7,1.1h-1.4c0.1-2,1.1-3.9,2.7-5c1.8-1.4,4-2.1,6.2-2c2.3-0.1,4.6,0.6,6.4,2.1c1.6,1.4,2.5,3.5,2.4,5.6v16h-2.8
	v-4.5c-0.7,1.4-1.8,2.6-3.1,3.4c-1.5,0.9-3.2,1.3-4.9,1.3c-2,0.1-4-0.6-5.6-1.9 M505.3,376.4c1.4-1.1,2.2-2.9,2.1-4.7v-2.6l-6.9,0.5
	c-4,0.3-6,1.7-6,4.4c0,1.2,0.5,2.4,1.5,3.1c1.1,0.8,2.5,1.3,4,1.2C502,378.4,503.9,377.7,505.3,376.4 M518.1,380.6v-30.6h1.1
	c1,0,1.8,0.8,1.8,1.8v28.9H518.1z M528.1,380.6v-30.6h1.1c1,0,1.8,0.8,1.8,1.8c0,0,0,0,0,0v28.9H528.1z M425.8,377.6
	c-2.1-2.4-3.1-5.5-3-8.7c-0.2-3.2,0.9-6.3,3-8.7c4.4-4.3,11.4-4.3,15.8,0c2.1,2.4,3.1,5.6,3,8.7c0.2,3.2-0.9,6.3-3,8.7
	C437.2,381.9,430.2,381.9,425.8,377.6 M439.5,375.7c1.5-2,2.2-4.4,2.1-6.9c0.1-2.5-0.6-4.9-2.1-6.9c-3-3.2-7.9-3.4-11.1-0.4
	c-0.1,0.1-0.3,0.3-0.4,0.4c-1.5,2-2.3,4.4-2.1,6.9c-0.1,2.5,0.6,4.9,2.1,6.9c3,3.2,8,3.3,11.2,0.4
	C439.2,376,439.3,375.9,439.5,375.7 M451.2,380.6v-23.4h0.9c1,0,1.8,0.8,1.8,1.8c0,0,0,0,0,0v2.4h0.1c0.7-2.7,3.2-4.5,5.9-4.4
	c0.6,0,1.2,0.1,1.7,0.2v2.8c-0.3-0.1-0.6-0.2-0.9-0.2c-0.4-0.1-0.8-0.1-1.2-0.1c-1.5-0.1-3,0.6-4,1.8c-1,1.3-1.6,2.9-1.5,4.6v14.5
	L451.2,380.6z M415.9,349.9c-1.6-0.2-3.1,0.3-4.4,1.3c-1,0.9-1.4,1.9-1.4,4.6v2.7h-3.3v2.4h3.3v19.6h2.9v-19.6h4.8v-2.4H413v-2.7
	c0-1.7,0.2-2.3,0.7-2.8c0.7-0.6,1.5-0.8,2.4-0.7c0.6,0,1.1,0.1,1.6,0.2v-2.4C417.2,350,416.6,349.9,415.9,349.9"/> -->
</svg>
