<?xml version="1.0" encoding="UTF-8" standalone="no"?>
<!-- Created with Inkscape (http://www.inkscape.org/) -->

<svg
   version="1.1"
   id="svg-name"
   width="500"
   height="100"
   viewBox="0 0 501.70982 100.34203"
   xmlns="http://www.w3.org/2000/svg"
   xmlns:svg="http://www.w3.org/2000/svg">
  <defs
     id="defs1" />
  <g
     id="g1">
    <path
       style="fill:#ffffff;fill-opacity:0.0627451;stroke:#ffffff;stroke-width:1.17197;stroke-dasharray:none;stroke-opacity:1"
       d="m 224.57843,16.891944 -1.22096,-0.53137 -0.36746,-2.28557 -0.36745,-2.28562 0.22112,-4.64771 0.22112,-4.64768 1.10189,-0.82151 1.10189,-0.82146997 6.41636,-0.13127 6.41636,-0.13122 1.12629,0.49855997 1.1263,0.49852 0.49838,0.79807 0.49839,0.79803 -0.11132,5.86645 -0.11131,5.86649 -0.0465,0.84643 -0.0465,0.8464 -0.19533,-0.0305 -0.19533,-0.0305 -1.09973,0.45375 -1.09974,0.45375 -6.32274,-0.0152 -6.32273,-0.0152 z"
       id="path59" />
    <path
       style="fill:#ffffff;fill-opacity:0.0627451;stroke:#ffffff;stroke-width:1.17197;stroke-dasharray:none;stroke-opacity:1"
       d="m 250.7682,98.742864 -0.16212,-0.16275 V 49.813264 1.046334 h 8.9851 8.9851 v 48.21411 48.21411 l 0.23169,0.60376 0.23166,0.60376 -9.05467,0.11185 -9.05463,0.11184 z"
       id="path34" />
    <path
       style="fill:#ffffff;fill-opacity:0.0627451;stroke:#ffffff;stroke-width:1.17197;stroke-dasharray:none;stroke-opacity:1"
       d="m 223.35546,98.777634 -0.49066,-0.31151 -0.006,-36.47395 -0.006,-36.47395 0.4962,-0.31495 0.49622,-0.31494 8.47372,-0.006 8.47372,-0.006 0.24137,0.39054 0.24137,0.39054 -0.0276,36.37593 -0.0276,36.37589 -0.21378,0.34593 -0.21378,0.34588 -8.47372,-0.006 -8.47372,-0.006 z"
       id="path33" />
    <path
       style="fill:#ffffff;fill-opacity:0.0627451;stroke:#ffffff;stroke-width:1.17197;stroke-dasharray:none;stroke-opacity:1"
       d="M 0.8464237,98.840644 0.5859848,98.580234 V 50.373584 2.166934 L 0.99038449,1.411324 1.3947881,0.65568403 h 8.3574647 8.3574612 l 0.613889,0.61386997 0.613889,0.61392 v 48.37166 48.3717 l -0.617936,0.23713 -0.617933,0.23713 H 9.6042409 1.1068587 Z"
       id="path32" />
    <path
       style="fill:#ffffff;fill-opacity:0.0627451;stroke:#ffffff;stroke-width:1.17197;stroke-dasharray:none;stroke-opacity:1"
       d="m 156.45789,99.113864 -7.6178,-0.2081 -0.22901,-22.07209 -0.229,-22.07208 -0.52368,-1.35804 -0.52369,-1.35808 -0.51453,-0.98586 -0.51455,-0.9859 -0.002,-0.51137 -0.002,-0.51137 -0.39066,0.24143 -0.39066,0.24142 v -0.65415 -0.65415 l -1.66029,-1.51821 -1.66029,-1.51821 -1.95328,-0.68295 -1.95328,-0.68294 -4.31517,0.0498 -4.31518,0.0497 -2.13065,1.00195 -2.13066,1.00192 -1.24095,1.12333 -1.24095,1.1233 -0.97227,2.12224 -0.97228,2.1222 -0.51638,1.56263 -0.51638,1.56262 -0.005,21.60029 -0.005,21.60033 -0.78131,0.19158 -0.78132,0.19158 -8.39911,-0.11044 -8.39911,-0.11048 v -22.65807 -22.65807 l 0.27732,-1.56263 0.27733,-1.56262 0.45825,-1.95328 0.45826,-1.95329 -0.0104,-0.87639 -0.0104,-0.8764 0.34916,0.2158 0.34917,0.21579 v -0.4021 -0.40214 l 0.97664,-2.13517 0.97665,-2.13513 v -0.26182 -0.26182 l 1.17196,-1.47973 1.17197,-1.47973 v -0.42382 -0.42382 l 2.86335,-2.84054 2.86335,-2.84054 1.33621,-1.11541 1.33621,-1.1154 2.14861,-0.96109 2.14861,-0.9611 1.67743,-0.79893 1.67743,-0.79889 3.59643,-0.54008 3.59643,-0.54008 2.73459,0.0172 2.7346,0.0172 2.53927,0.33499 2.53926,0.33499 3.1746,0.95125 3.1746,0.95125 1.12262,0.76103 1.12262,0.761 1.50885,0.76495 1.50886,0.76494 1.6164,1.49512 1.6164,1.49508 0.78131,0.31061 0.78131,0.31058 1.3673,-1.19944 1.3673,-1.19947 -0.093,-0.29916 -0.093,-0.29921 0.64538,0.24764 0.64539,0.24768 -0.28247,-0.45707 -0.28247,-0.45703 h 0.57907 0.57906 l 1.16067,-0.97664 1.16068,-0.97664 h 0.45498 0.45498 l -0.23867,-0.38617 -0.23868,-0.3862 0.60628,0.23264 0.60627,0.23267 v -0.49758 -0.49754 l 0.25705,0.25705 0.25705,0.25702 0.4266,-0.32315 0.4266,-0.32315 2.34394,-0.67994 2.34394,-0.67994 0.78131,-0.33999 0.78131,-0.34003 2.14861,-0.21329 2.14861,-0.21334 2.14861,-0.0521 2.14861,-0.0522 2.7346,0.27268 2.73459,0.27272 2.7346,0.80842 2.73459,0.80847 2.53927,1.17373 2.53927,1.17372 1.75795,1.38789 1.75795,1.38792 2.63694,2.66002 2.63693,2.65998 v 0.17509 0.17505 l 0.97114,1.48231 0.97113,1.48231 0.41156,0.48832 0.41156,0.48832 h -0.18012 -0.18011 l 1.37863,3.41824 1.37864,3.41825 0.81889,4.29722 0.81889,4.29722 0.0181,21.68143 0.0181,21.68143 -8.39912,0.11047 -8.39911,0.11044 -0.85074,-0.20849 -0.85074,-0.20845 -0.14119,-22.36473 -0.14119,-22.36473 -0.71226,-1.56262 -0.71227,-1.56263 -0.289,-0.19533 -0.289,-0.19533 -0.66553,-1.4171 -0.66554,-1.41711 -1.62244,-1.30381 -1.62243,-1.30382 -2.71424,-0.67451 -2.71424,-0.6745 -3.35699,0.19466 -3.35699,0.19466 -2.4416,1.21651 -2.4416,1.2165 v 0.51184 0.51188 l -0.93794,0.23541 -0.93794,0.23541 -1.03977,2.3169 -1.03978,2.31694 -0.40846,2.04533 -0.40846,2.04532 -0.18539,21.01973 -0.18539,21.01974 -0.96978,0.3687 -0.96977,0.3687 -0.46289,-0.0849 -0.46289,-0.0849 z"
       id="path31" />
    <path
       style="fill:#ffffff;fill-opacity:0.0627451;stroke:#ffffff;stroke-width:1.17197;stroke-dasharray:none;stroke-opacity:1"
       d="m 456.482,99.624184 -3.32058,-0.57614 -4.10189,-1.37539 -4.10189,-1.37534 -2.81769,-1.74202 -2.81769,-1.74205 -2.13708,-2.39914 -2.13705,-2.3991 -1.21068,-2.48305 -1.21068,-2.48301 -0.61572,-2.40332 -0.61567,-2.40336 -0.0554,-2.55989 -0.0553,-2.55993 h 8.98509 8.9851 l -0.12946,0.92167 -0.12947,0.92168 0.41801,-0.2583 0.41796,-0.25834 -0.23299,0.60716 -0.23299,0.60715 0.22998,0.91637 0.23002,0.91636 1.44902,1.65306 1.44899,1.65306 1.97672,1.00442 1.97668,1.00438 1.95328,0.52254 1.95329,0.52258 6.05517,0.004 6.05517,0.004 2.3223,-0.38026 2.32234,-0.3803 1.97488,-1.00911 1.97493,-1.00914 0.77478,-1.04891 0.77483,-1.04896 v -2.15662 -2.15661 l -0.86444,-1.21401 -0.86445,-1.21396 -2.05899,-0.82011 -2.05896,-0.8201 -1.75795,-0.39683 -1.75795,-0.39687 -7.03182,-0.41159 -7.03181,-0.4116 -3.55845,-0.73951 -3.55845,-0.73952 -3.44637,-1.38968 -3.44634,-1.38968 -2.33932,-1.83792 -2.33937,-1.83788 -1.29015,-1.38715 -1.29014,-1.38714 -1.4455,-2.89953 -1.44547,-2.89953 -0.17595,-3.9559 -0.17592,-3.95594 0.79284,-3.10627 0.79288,-3.1063 1.08497,-1.95329 1.08493,-1.95328 2.64334,-2.62064 2.64329,-2.62068 4.02333,-1.95109 4.02338,-1.9511 2.53926,-0.6129 2.53927,-0.61286 0.97664,-0.15083 0.97664,-0.15087 3.51591,-0.2687 3.51591,-0.26869 4.65334,0.46011 4.65334,0.46012 2.94336,0.75279 2.94336,0.75276 3.14635,1.53051 3.14635,1.53048 2.2533,2.01934 2.25331,2.01934 1.69912,2.40406 1.69916,2.4041 0.62466,1.95328 0.62466,1.95329 0.40081,2.53926 0.40082,2.53927 0.004,1.26963 0.004,1.26964 h -8.9674 -8.9674 l -0.27432,-1.46496 -0.27432,-1.46497 -0.51895,-1.24326 -0.51891,-1.2433 -0.92655,-0.99981 -0.9266,-0.99981 -2.3021,-1.03668 -2.3021,-1.03673 -4.2448,-0.19048 -4.24475,-0.19048 -2.20108,0.4889 -2.20103,0.48895 -1.54251,0.7826 -1.54254,0.78256 -1.09158,1.09157 -1.09157,1.09158 -0.39347,1.03496 -0.39351,1.03497 v 1.77846 1.7785 l 1.47575,1.47571 1.4757,1.47574 2.13787,0.66459 2.13783,0.66458 8.59444,0.31932 8.59444,0.31937 4.02458,0.82651 4.02458,0.82651 1.83527,0.62075 1.83526,0.62076 2.34394,1.17622 2.34394,1.17623 2.77983,2.81827 2.77983,2.81828 1.07966,3.24194 1.07966,3.24194 -0.20271,4.72991 -0.20272,4.72995 -0.95667,2.7603 -0.95672,2.76026 -2.01341,2.56204 -2.01344,2.56204 -2.14228,1.61744 -2.14228,1.61743 -3.03693,1.38836 -3.03692,1.38839 -3.12525,0.73061 -3.12525,0.7306 -4.26742,0.41468 -4.26741,0.414676 -4.91301,-0.0363 -4.91301,-0.0363 z"
       id="path30" />
    <path
       style="fill:#ffffff;fill-opacity:0.0627451;stroke:#ffffff;stroke-width:1.17197;stroke-dasharray:none;stroke-opacity:1"
       d="m 384.01524,99.884824 -1.95328,-0.29072 -2.4911,-0.64177 -2.4911,-0.64173 -3.129,-1.35597 -3.129,-1.35597 -2.19303,-1.64365 -2.19303,-1.64361 -1.47269,-1.38085 -1.4727,-1.38085 -1.06548,-1.57247 -1.06547,-1.57247 -0.19939,-0.19533 -0.19943,-0.19533 -1.0129,-1.95328 -1.01293,-1.95328 -0.80264,-2.14861 -0.80261,-2.14861 -0.29143,-0.78132 -0.29143,-0.78131 -0.10434,-0.39066 -0.10431,-0.39065 -0.61797,-4.00165 -0.61798,-4.00165 v -5.47435 -5.47434 l 0.57332,-3.80633 0.57333,-3.80632 0.83284,-2.53926 0.8328,-2.53927 0.93609,-2.23045 0.93609,-2.23046 1.54107,-2.38433 1.54102,-2.38429 1.32108,-1.44039 1.32112,-1.44043 1.94164,-1.61513 1.94164,-1.61517 3.10873,-1.5495 3.10869,-1.54954 2.73459,-0.67751 2.7346,-0.67748 0.58598,-0.26209 0.58599,-0.26205 3.71123,0.0379 3.71124,0.0383 3.42305,1.06368 3.42304,1.06364 2.82746,1.89292 2.82745,1.89289 1.85562,1.83186 1.85562,1.83183 V 17.101904 1.046354 h 8.78977 8.78977 v 32.13149 32.13149 l -0.41805,3.51591 -0.418,3.51591 -0.56797,2.34393 -0.56794,2.34394 -1.03145,2.92993 -1.03141,2.92992 -0.91144,1.3603 -0.9114,1.36035 v 0.35737 0.35741 l -1.41992,1.73284 -1.41992,1.73283 -1.41234,1.38453 -1.41234,1.38456 -1.96231,1.45992 -1.9623,1.45989 -1.5536,0.7865 -1.55361,0.78655 -2.92992,1.06118 -2.92992,1.06118 -3.32058,0.5479 -3.32058,0.547926 -3.32058,-0.0473 -3.32058,-0.0472 z m 10.07171,-17.02445 2.37136,-0.6145 1.7869,-1.21889 1.78694,-1.21893 1.06185,-1.19419 1.06188,-1.1942 1.01281,-1.85449 1.01286,-1.85448 -0.27944,-0.45215 -0.27943,-0.45214 0.39534,0.24431 0.39535,0.24436 0.71892,-3.01626 0.71893,-3.01622 -0.0102,-5.46919 -0.0102,-5.46919 -0.64251,-2.43172 -0.64247,-2.43167 -1.14771,-2.27359 -1.14767,-2.27354 -1.89055,-1.8789 -1.8905,-1.87886 -2.11458,-0.99375 -2.11455,-0.99375 -3.63627,-0.19022 -3.63627,-0.19021 -2.83433,0.91137 -2.83429,0.91136 -2.20064,2.16884 -2.20065,2.16889 -0.68384,1.33323 -0.68385,1.33327 -0.72283,2.10095 -0.72283,2.10095 -0.45828,4.07271 -0.45828,4.07271 0.48492,4.40813 0.48496,4.40809 0.92711,2.46871 0.92715,2.46868 0.86901,1.24256 0.86905,1.24252 1.57986,1.48899 1.57989,1.48895 1.17197,0.6388 1.17197,0.63876 2.14861,0.47645 2.14861,0.47644 2.09224,0.0328 2.0922,0.0328 z m -18.47082,-12.86318 v -0.19533 h 0.19533 0.19533 v 0.19533 0.19533 h -0.19533 -0.19533 z m -0.78131,-15.62626 v -0.19533 h 0.19532 0.19533 v 0.19533 0.19533 h -0.19533 -0.19532 z m 28.12726,-4.29722 v -0.19533 h 0.19533 0.19532 v 0.19533 0.19533 h -0.19532 -0.19533 z m -4.68788,-5.85984 v -0.19533 h 0.19533 0.19533 v 0.19533 0.19532 h -0.19533 -0.19533 z m -16.79823,-0.78132 v -0.19533 h 0.19533 0.19533 v 0.19533 0.19533 h -0.19533 -0.19533 z"
       id="path28" />
    <path
       style="fill:#ffffff;fill-opacity:0.0627451;stroke:#ffffff;stroke-width:1.17197;stroke-dasharray:none;stroke-opacity:1"
       d="m 306.66527,99.911904 -1.95328,-0.30909 -0.266,0.14614 -0.26599,0.14619 -0.23143,-0.37445 -0.23142,-0.37444 -1.78151,-0.26717 -1.78151,-0.26717 -3.9856,-2.00168 -3.98559,-2.00169 -1.93926,-1.54102 -1.93926,-1.54102 -1.95328,-2.22592 -1.95328,-2.22596 -0.35335,0.21376 -0.35335,0.21373 0.26975,-0.43648 0.26979,-0.43648 -0.97305,-1.54134 -0.97301,-1.54137 -0.97043,-2.38832 -0.97047,-2.38827 -0.78006,-3.01904 -0.78006,-3.01903 -0.46941,-3.5159 -0.46942,-3.51591 0.24819,-6.2505 0.24818,-6.25051 1.16392,-4.41387 1.16396,-4.41383 1.34421,-2.81331 1.34425,-2.81327 1.35718,-1.89301 1.35718,-1.893 1.6715,-1.75378 1.67147,-1.75381 2.76537,-1.8394 2.76538,-1.83941 2.7346,-1.23744 2.73459,-1.23745 3.51591,-0.86671 3.51591,-0.86667 4.68787,0.009 4.68788,0.009 3.71124,0.87632 3.71123,0.87636 2.85484,1.31835 2.85488,1.31839 2.66334,1.77061 2.66338,1.77061 1.26369,1.27194 1.26366,1.27198 1.95496,2.73459 1.95492,2.7346 1.17252,2.53926 1.17251,2.53927 0.56849,1.95328 0.56848,1.95328 0.56985,2.7346 0.56985,2.73459 0.28229,5.40317 0.28229,5.40313 -0.16373,0.16372 -0.16368,0.16369 h -25.13226 -25.13221 v 0.29299 0.29299 l 0.56212,3.19385 0.56207,3.19382 0.86757,2.08005 0.86753,2.08001 1.5236,2.06579 1.5236,2.06575 1.6115,1.16736 1.61153,1.1674 2.13232,0.61989 2.13232,0.61986 3.579,-0.15654 3.579,-0.15654 2.16845,-1.0609 2.1685,-1.06095 1.91152,-2.20049 1.91156,-2.20045 0.58942,-1.21638 0.58942,-1.21643 9.66531,-0.1045 9.66531,-0.10446 -0.005,0.29979 -0.005,0.29983 -0.74162,2.34394 -0.74158,2.34393 -1.23037,2.7262 -1.23034,2.7262 -0.4646,0.29541 -0.46461,0.29541 0.37991,0.006 0.37991,0.006 -0.89448,0.62654 -0.89445,0.62649 0.20748,0.54079 0.20752,0.54075 -0.27893,-0.0614 -0.27893,-0.0614 -3.14732,3.1487 -3.14729,3.14869 -4.47051,2.16201 -4.47048,2.16201 -2.92992,0.65368 -2.92993,0.65369 -4.8832,0.130866 -4.88321,0.13087 z m 20.50947,-47.85623 v -0.55727 l -1.57837,-3.12072 -1.57837,-3.12068 -1.64455,-1.44207 -1.64455,-1.44207 -1.36729,-0.674 -1.3673,-0.67404 -2.22858,-0.51457 -2.22854,-0.51458 -2.7233,0.22834 -2.72334,0.2283 -2.23296,1.05634 -2.23295,1.05637 -1.85097,1.89035 -1.85093,1.89031 -0.88011,1.86401 -0.88011,1.86402 -0.30311,1.04489 -0.30315,1.04493 0.22475,0.2247 0.2247,0.22475 h 14.58453 14.5845 z m -7.03182,-9.01377 v -0.19533 h 0.19533 0.19533 v 0.19533 0.19532 h -0.19533 -0.19533 z"
       id="path27" />
    <path
       style="fill:#ffffff;fill-opacity:0.0627451;stroke:#ffffff;stroke-width:1.17197;stroke-dasharray:none;stroke-opacity:1"
       d="m 58.59846,100.48323 -0.390656,-0.1597 -2.14861,-0.20724 -2.148611,-0.207236 -1.367297,-0.24147 -1.367297,-0.2415 -1.367298,-0.60314 -1.367297,-0.60317 -2.539267,-1.18369 -2.539266,-1.18373 -2.1171,-1.59853 -2.1171,-1.59856 -1.20348,-1.18228 -1.203479,-1.18225 -1.099768,-1.46199 -1.099768,-1.46199 -0.365194,0.22572 -0.365193,0.22568 v -0.53012 -0.53016 l -1.5219,-3.1065 -1.5219,-3.10646 -0.804654,-2.45317 -0.804658,-2.45316 -0.408037,-2.33238 -0.408041,-2.33237 -0.386808,-2.24628 -0.386809,-2.24627 -0.02231,-20.475 -0.02231,-20.47497 0.506795,-0.32147 0.506795,-0.32151 8.448944,-0.006 8.448941,-0.006 0.416135,0.50141 0.416139,0.5014 0.120561,20.69171 0.120564,20.6917 0.707983,2.14861 0.707978,2.14861 0.8541,1.70111 0.8541,1.70115 1.84025,1.66529 1.840249,1.66533 1.48033,0.73545 1.48033,0.73545 4.29722,-0.0164 4.297221,-0.0164 1.464961,-0.71174 1.464962,-0.71178 v -0.34612 -0.34639 h 0.720765 0.720765 l 0.647384,-0.71537 0.647384,-0.71533 -0.19618,-0.26131 -0.196211,-0.26127 0.238777,0.17368 0.238773,0.17365 0.835532,-1.05411 0.835528,-1.05407 0.488321,-0.87222 0.48832,-0.87226 v -0.70845 -0.7085 l 0.379386,-0.3794 0.37939,-0.37937 0.430789,-2.92168 0.430788,-2.92164 -0.03618,-19.09333 -0.03617,-19.09333 0.445801,-0.53715 0.445801,-0.53716 8.448941,0.006 8.448945,0.006 0.524249,0.3323 0.524245,0.33225 -0.04698,21.24553 -0.04698,21.2455 -0.40145,2.34394 -0.401447,2.34394 -0.598931,2.34394 -0.598927,2.34394 -0.204872,1.0743 -0.204875,1.07431 h -0.363444 -0.363439 l 0.103524,0.48832 0.103528,0.48832 -0.962464,1.95328 -0.962468,1.95328 -1.6632,2.41918 -1.663204,2.41922 v 0.41304 0.41308 h -0.559659 -0.559658 l -0.247981,0.78131 -0.247981,0.78131 h -0.464697 -0.464702 l -1.169262,1.27335 -1.169265,1.27338 -1.953282,1.15654 -1.953282,1.15654 -1.562626,0.75002 -1.562626,0.75006 -1.171969,0.58192 -1.171969,0.58196 -1.562626,0.30315 -1.562625,0.30319 -0.781313,0.18962 -0.781313,0.189666 -3.711236,0.22744 -3.711235,0.22748 z"
       id="path26" />
  </g>
</svg>
