<?xml version="1.0" encoding="UTF-8" standalone="no"?>
<!-- Created with Inkscape (http://www.inkscape.org/) -->

<svg
   version="1.1"
   id="svg1"
   width="205"
   height="296"
   viewBox="0 0 205.70103 297.01241"
   xmlns="http://www.w3.org/2000/svg"
   xmlns:svg="http://www.w3.org/2000/svg">
  <defs
     id="defs1" />
  <g
     id="g1">
    <path
       style="fill:#ffffff;fill-opacity:0.0627451;stroke:#ffffff;stroke-width:1.17197;stroke-dasharray:none;stroke-opacity:1"
       d="m 84.858028,195.43845 -0.24443,-0.97395 -0.44668,0.25526 -0.44663,0.25525 0.25974,-0.28983 0.25975,-0.28979 -0.52996,-1.26834 -0.52993,-1.26834 -0.085,-2.31339 -0.085,-2.31335 -3.64898,-3.81883 -3.64899,-3.81882 v -0.57606 -0.57606 h 0.88107 0.88108 l 2.83017,-2.88512 2.83015,-2.88507 V 160.233 147.79403 l -2.82249,-2.84144 -2.82247,-2.84144 h -7.13926 -7.13926 v -0.74935 -0.74936 l -0.23712,-0.61794 -0.23712,-0.61794 h 7.17513 7.17514 l 3.00717,-2.95887 3.00715,-2.95883 v -12.37444 -12.37439 l -3.01278,-3.04247 -3.01278,-3.04243 -5.27386,0.057 -5.27386,0.057 0.0218,-0.3351 0.0218,-0.33507 0.31355,-1.0743 0.31356,-1.074308 h 5.07415 5.07416 l 2.89763,-2.832259 2.89757,-2.832259 -0.0454,-12.215982 -0.0454,-12.215982 0.58486,-0.871007 0.58485,-0.871008 0.73814,-0.781312 0.73819,-0.781313 0.65048,-0.938084 0.65048,-0.938083 1.81534,-1.894175 1.8153,-1.894176 h 10.421972 10.42198 l 2.82245,-2.841439 2.82249,-2.84144 v -4.711277 -4.711238 l 0.24783,-0.247832 0.24784,-0.247833 1.31479,1.721896 1.31479,1.721936 v 3.278154 3.278115 l 2.7335,2.702834 2.73354,2.702796 1.40422,0.195328 1.40421,0.195328 0.53129,1.269633 0.5313,1.269634 h -1.92613 -1.92614 l -2.74291,2.699709 -2.74288,2.699709 v 12.861893 12.861933 l 2.72409,2.60392 2.72408,2.603881 h 7.24113 7.23766 v 1.367298 1.3673 l -6.73883,0.0463 -6.73882,0.0463 -0.34905,-0.0649 -0.34905,-0.065 -2.8641,2.85097 -2.86406,2.85093 -0.01,12.6504 -0.01,12.65039 2.82683,2.89457 2.82683,2.89457 4.81413,-0.0583 4.8141,-0.0583 0.11657,0.13962 0.11661,0.13962 -0.53152,1.26963 -0.53149,1.26963 h -4.61014 -4.61013 l -1.25546,1.2953 -1.25549,1.29534 0.26733,0.26729 0.26729,0.26732 h -0.57798 -0.57802 l -1.04973,1.09568 -1.04973,1.09567 v 10.35767 10.35767 l -1.24065,1.61427 -1.24068,1.61423 -0.32194,-0.199 -0.32202,-0.19896 v -11.81568 -11.81567 l -2.71233,-2.61557 -2.71229,-2.61556 H 101.41565 91.134978 l -2.6333,2.69487 -2.63325,2.69482 v 12.84334 12.84334 l 2.70064,2.62732 2.70065,2.62736 h 10.163122 10.16308 l 0.63252,-0.63251 0.63247,-0.63248 0.2213,0.22127 0.22127,0.22131 -0.81873,1.29018 -0.81874,1.29018 -0.34659,0.52618 -0.34659,0.52621 -9.64625,-0.055 -9.646282,-0.055 -2.90594,2.81773 -2.90593,2.81772 v 4.81719 4.81718 h -0.3832 -0.38323 z m 29.461822,-58.92443 2.84344,-2.86253 -0.0309,-12.66606 -0.0309,-12.66606 -2.81261,-2.83225 -2.81257,-2.83226 h -9.90708 -9.907092 l -2.88781,2.84136 -2.88781,2.8414 -0.0285,12.64992 -0.0285,12.64996 2.9164,2.86953 2.91645,2.86953 h 9.907082 9.90709 z m -3.05829,1.8859 v -0.19533 h 0.19533 0.19533 v 0.19533 0.19533 h -0.19533 -0.19533 z m -22.658072,-2.7346 v -0.19533 h 0.19533 0.19533 v 0.19533 0.19533 h -0.19533 -0.19533 z m 25.839232,-38.427774 2.69873,-2.682754 -0.0309,-12.840017 -0.0309,-12.840016 -2.32436,-2.27448 -2.32437,-2.274441 -0.38503,0.237949 -0.38503,0.237988 0.23264,-0.606299 0.23291,-0.606259 H 101.79479 91.463218 l -2.79722,2.753151 -2.79717,2.75319 V 81.861154 94.62679 l 2.62646,2.646736 2.62646,2.646736 h 10.311102 10.31106 z m -23.495292,1.706075 v -0.195328 h 0.19533 0.19533 v 0.195328 0.195328 h -0.19533 -0.19533 z m 0.78131,-0.781313 V 97.96698 h 0.19533 0.19533 v 0.195328 0.195328 h -0.19533 -0.19533 z m -0.78131,-0.390656 v -0.195328 h 0.19533 0.19533 v 0.195328 0.195328 h -0.19533 -0.19533 z m -3.1751,-2.050946 -0.53614,-0.683649 0.68365,0.536137 0.68365,0.536176 v 0.147472 0.147512 h -0.14751 -0.14747 z m 26.614482,0.48832 v -0.195328 h 0.19533 0.19533 v 0.195328 0.195328 h -0.19533 -0.19533 z M 91.338088,65.737827 v -0.195328 h 0.19532 0.19533 v 0.195328 0.195328 h -0.19533 -0.19532 z"
       id="path68" />
    <path
       style="fill:#ffffff;fill-opacity:0.0627451;stroke:#ffffff;stroke-width:1.17197;stroke-dasharray:none;stroke-opacity:1"
       d="m 79.032408,250.30422 -4.29722,-0.75256 -0.87898,-0.38726 -0.87898,-0.38729 -0.009,-2.05935 -0.009,-2.05931 -0.41154,-1.56262 -0.41154,-1.56263 -0.36708,-2.33452 -0.36707,-2.33452 -0.35813,-1.18139 -0.35812,-1.18138 -1.29554,-4.10189 -1.29555,-4.10189 -0.29299,-0.13021 -0.29299,-0.13024 v -0.77335 -0.77334 l -1.01303,-2.2217 -1.01306,-2.22167 -2.78543,-5.76218 -2.78543,-5.76218 h -0.21776 -0.21774 l -0.41708,-1.10497 -0.41707,-1.10493 -1.30702,-1.99649 -1.30702,-1.99649 -0.3752,0.23185 -0.37519,0.2319 0.28805,-0.46609 0.28806,-0.4661 -2.45092,-3.59849 -2.45092,-3.59849 -0.62639,-0.58599 -0.62639,-0.58598 -0.81077,-1.40113 -0.81078,-1.40109 -0.7345,-0.91472 -0.73449,-0.91476 -1.59214,-1.78604 -1.59214,-1.78604 -2.16729,-2.7346 -2.16729,-2.73459 -5.34751,-5.37966 -5.3475,-5.37965 -0.42684,0.26381 -0.42685,0.26381 0.29169,-0.47195 0.29168,-0.47195 -1.98928,-1.87742 -1.98928,-1.87745 v -0.29413 -0.29412 l -2.54241,-3.01274 -2.54243,-3.01279 -2.75607,-4.26815 -2.75607,-4.26816 -2.89297,-5.85984 -2.8929597,-5.85985 -1.21502,-3.32058 -1.21501,-3.32058 -0.34201,-1.17197 -0.34201,-1.17197 -1.16293,-4.36418 -1.16293,-4.36421 -0.85167,-5.98818 -0.85168002,-5.98822 -0.0168,-8.20378 -0.0168,-8.203784 0.82482002,-5.273862 0.82482,-5.273861 0.57294,-2.539267 0.57293,-2.539266 0.62662,-2.343939 0.62661,-2.343938 0.62307,-1.953282 0.62306,-1.953282 0.78,-1.953282 0.77999,-1.953282 0.57573,-1.367297 0.57572,-1.367298 2.5803197,-5.176197 2.58032,-5.176197 h 0.31315 0.31318 v -0.510237 -0.510197 l 2.44161,-3.517392 2.4416,-3.517353 1.35229,-1.734593 1.35229,-1.734592 2.13703,-2.468206 2.13702,-2.468246 2.57707,-2.610288 2.57706,-2.610327 3.11405,-2.75151 3.11404,-2.751549 1.3673,-0.940896 1.3673,-0.940896 0.19532,-0.227011 0.19533,-0.227049 2.12332,-1.549734 2.12333,-1.549734 1.28213,-0.781313 1.28213,-0.781312 4.04392,-2.441603 4.04391,-2.441602 h 1.07186 1.07185 l 2.41715,0.769593 2.41716,0.769593 2.34394,0.645989 2.34394,0.64599 3.32058,1.163179 3.32058,1.163218 1.95328,0.698182 1.95328,0.69822 4.68788,2.457775 4.68787,2.457776 1.81503,1.004065 1.81503,1.004065 2.28686,1.51688 2.28687,1.51688 0.19904,0.307407 0.199,0.307408 0.56203,0.128995 0.56204,0.128994 0.91246,0.781313 0.91245,0.781313 0.6815,0.585985 0.681472,0.585984 2.13755,1.729397 2.13756,1.729358 2.07973,1.981878 2.07978,1.981839 0.39296,0.716151 0.393,0.716151 -0.67767,0.748811 -0.67767,0.74881 h -0.28952 -0.28947 l -3.60057,2.441602 -3.60056,2.441603 -0.857922,0.585984 -0.85796,0.585985 -1.91172,1.562626 -1.91171,1.562625 -1.23916,1.171969 -1.23917,1.17197 -1.41632,1.23631 -1.41633,1.236271 v 0.364287 0.364326 l -0.73927,0.352685 -0.73924,0.352685 -1.8977,2.215178 -1.89765,2.215178 -2.83226,3.30171 -2.83226,3.30175 v 0.261584 0.261622 l -0.78131,0.838661 -0.78131,0.838622 v 0.535395 0.535356 l -0.33481,-0.206931 -0.33481,-0.206892 -1.06086,1.844133 -1.06085,1.844172 -1.92091,3.320579 -1.9209,3.320579 -1.81533,3.711236 -1.81533,3.711236 -0.29532,0.781313 -0.29533,0.781313 -1.0186,2.467346 -1.01861,2.467347 -0.002,0.462576 -0.002,0.462577 -0.60946,1.168843 -0.60945,1.168844 -0.77728,3.12838 -0.77727,3.12837 -0.70282,3.29968 -0.70282,3.29972 0.18424,0.70451 0.18423,0.70455 h -0.38227 -0.38227 l -0.2496,2.4416 -0.24961,2.4416 -0.29266,2.34394 -0.29267,2.34394 0.0386,8.00846 0.0386,8.00845 0.48527,2.7346 0.48527,2.73459 0.53244,3.51591 0.53245,3.51591 0.76252,3.32788 0.76252,3.32793 0.59009,1.35995 0.59008,1.35999 0.86133,2.7346 0.86132,2.73459 0.29239,0.39066 0.29239,0.39065 0.48097,1.56263 0.48097,1.56263 2.15109,4.29722 2.1511,4.29722 0.49789,0.58598 0.4979,0.58599 0.28688,0.97664 0.28687,0.97664 0.8552,1.17197 0.8552,1.17197 1.11659,1.95328 1.11659,1.95328 0.22914,0.19533 0.22915,0.19533 1.24299,2.53926 1.243,2.53927 2.95655,6.15385 2.95657,6.15386 v 0.50828 0.50824 l 1.01231,2.12764 1.01231,2.12767 0.30271,0.78131 0.30276,0.78131 0.83355,2.15615 0.83358,2.15615 v 1.3348 1.33479 l -0.60032,2.56423 -0.60028,2.56423 -0.36363,1.3673 -0.36358,1.3673 -0.42601,2.1486 -0.42601,2.14861 -0.3721,3.12525 -0.37206,3.12526 -0.23916,6.2505 -0.23912,6.2505 -0.0506,0.0659 -0.0506,0.0659 -0.97582,0.20333 -0.97586,0.20334 z"
       id="path66" />
    <path
       style="fill:#ffffff;fill-opacity:0.0627451;stroke:#ffffff;stroke-width:1.17197;stroke-dasharray:none;stroke-opacity:1"
       d="m 91.469348,250.79285 -0.24756,-0.98644 0.2508,-5.69921 0.25076,-5.69925 0.5911,-4.10189 0.59111,-4.10189 1.147,-4.68788 1.14697,-4.68787 0.95222,-2.92993 0.95223,-2.92992 0.85843,-2.14185 0.85843,-2.14185 0.94648,-2.06927 0.946522,-2.06931 v -0.14622 -0.14622 l 1.41761,-2.47911 1.41766,-2.47914 2.73233,-5.27386 2.73232,-5.27387 1.96489,-3.32057 1.96488,-3.32058 2.35422,-3.51591 2.35417,-3.51591 2.6381,-3.51591 2.6381,-3.5159 0.74147,-0.79136 0.74143,-0.79135 0.73123,-1.16193 0.73123,-1.16193 1.12134,-1.4591 1.12134,-1.4591 -0.24912,-0.88484 -0.24909,-0.88484 0.35699,0.51313 0.35698,0.51317 1.5743,-2.66178 1.57427,-2.66174 1.47032,-2.92992 1.47027,-2.92992 1.34987,-3.12525 1.34988,-3.12525 1.35175,-4.09506 1.35175,-4.09506 0.72377,-2.74143 0.7238,-2.74143 0.61466,-3.12525 0.61466,-3.12525 0.59243,-4.61021 0.59239,-4.61022 v -7.38247 -7.38247 l -0.59364,-4.61021 -0.59368,-4.610214 -0.77533,-3.711236 -0.77534,-3.711236 -0.34921,-1.367297 -0.34917,-1.367298 -1.04281,-3.515321 -1.04286,-3.515322 -1.00793,-2.539853 -1.00794,-2.539852 -1.14126,-2.539267 -1.14126,-2.539266 -1.38492,-2.702952 -1.38492,-2.702952 -1.5291,-2.570909 -1.52915,-2.57091 -0.28186,-0.48039 -0.28186,-0.48039 -1.9348,-2.84019 -1.93477,-2.840189 -2.54387,-3.125251 -2.54384,-3.125251 -1.3812,-1.548523 -1.38121,-1.548484 -1.8648,-1.887144 -1.8648,-1.887105 -0.44183,0.273069 -0.44183,0.273069 0.26416,-0.427417 0.26416,-0.427456 -1.47344,-1.36054 -1.47343,-1.360578 -0.97665,-0.835301 -0.97664,-0.835302 -0.89452,-0.768577 -0.89449,-0.768538 -3.79339,-2.840697 -3.793352,-2.840658 -3.12525,-1.970315 -3.12525,-1.970315 -2.92371,-1.525044 -2.92368,-1.525045 -0.53375,0.122588 -0.53375,0.122549 0.24021,-0.388625 0.24018,-0.388664 -0.88465,-0.27971 -0.88464,-0.279671 -2.34394,-1.095088 -2.34393,-1.095049 -2.41058,-0.957342 -2.41058,-0.957343 -4.03525,-1.2544756 -4.03526,-1.2544759 2.53927,-0.9312467 2.53927,-0.9312467 4.29722,-1.2043156 4.29722,-1.2043546 2.73252,-0.5551227 2.73249,-0.5551618 4.49466,-0.605244 4.49462,-0.605283 6.44583,-0.23068262 6.445832,-0.23072167 5.46919,0.47359279 5.46919,0.4735927 5.07853,0.9399584 5.07853,0.9399974 3.71124,0.9966817 3.71123,0.9966426 4.88321,1.7982305 4.8832,1.7981914 5.0222,2.4771914 5.02217,2.477152 3.57228,2.23518 3.57224,2.235179 2.92992,2.132047 2.92992,2.132085 1.3673,1.152866 1.3673,1.152905 1.66236,1.422888 1.6624,1.422888 3.66939,3.711236 3.6694,3.711236 2.09071,2.488481 2.09068,2.488442 0.78131,1.056296 0.78132,1.056257 2.6574,3.962076 2.6574,3.962076 1.86538,3.531573 1.86535,3.531534 0.32541,-0.295297 0.32542,-0.295336 -0.28053,0.4875 -0.28053,0.487539 0.59149,1.075086 0.5915,1.075126 0.98078,2.229593 0.98078,2.229633 1.60333,4.802182 1.60329,4.802222 0.92375,3.906564 0.92375,3.906564 0.70876,4.492549 0.70877,4.492549 -0.0148,9.961733 -0.0148,9.96174 -0.87511,5.07854 -0.87511,5.07853 -0.81225,3.12525 -0.81221,3.12525 -0.92203,2.92992 -0.92199,2.92993 -0.56336,1.56262 -0.56333,1.56263 -1.63142,3.71123 -1.63138,3.71124 -1.75936,3.31187 -1.75932,3.31187 -2.88313,4.30593 -2.88308,4.30593 -2.06305,2.5815 -2.06302,2.58145 -1.49602,1.71577 -1.49602,1.71572 -5.53666,5.66452 -5.53665,5.66452 -2.53841,2.78596 -2.53841,2.78597 -2.14861,2.43781 -2.14861,2.43778 -0.97664,1.19857 -0.97664,1.19857 -1.56262,1.79288 -1.56263,1.79288 -2.34394,3.1138 -2.34394,3.11385 -0.21322,0.19533 -0.21318,0.19532 -2.56528,3.71124 -2.56529,3.71124 -0.27541,0.87897 -0.27545,0.87898 h -0.30768 -0.30764 l -1.57904,3.41824 -1.57903,3.41825 -0.65482,1.95328 -0.65482,1.95328 -0.93452,3.71124 -0.93449,3.71123 -0.57493,4.68787 -0.57493,4.68788 -0.27448,5.32766 -0.27447,5.32769 -1.99641,0.20138 -1.99641,0.20139 -5.46919,0.80053 -5.46919,0.80053 -5.66452,0.42523 -5.66452,0.42527 -8.30735,-0.0692 -8.307342,-0.0692 z"
       id="path65" />
    <path
       style="fill:#ffffff;fill-opacity:0.0627451;stroke:#ffffff;stroke-width:1.17197;stroke-dasharray:none;stroke-opacity:1"
       d="m 97.979238,296.31757 -0.19532,-0.19365 -4.88321,-0.22303 -4.8832,-0.22302 -2.7346,-0.41152 -2.73459,-0.41156 -3.49478,-0.80936 -3.49477,-0.80932 -1.08025,-0.55864 -1.08024,-0.5586 -0.99184,-1.69244 -0.99183,-1.69244 v -1.46926 -1.46926 l 0.63554,-1.33932 0.63554,-1.33929 0.97998,-0.77085 0.97998,-0.77088 1.49689,-0.44847 1.49689,-0.44847 4.60304,1.00918 4.60307,1.00918 5.46919,0.47055 5.46919,0.4705 8.008452,-0.24998 8.00846,-0.24998 4.68788,-0.57758 4.68787,-0.57755 0.29299,-0.008 0.293,-0.008 v -5.12201 -5.12202 l -1.26964,0.22487 -1.26963,0.22482 -4.29722,0.48402 -4.29722,0.48399 -10.74305,-2.4e-4 -10.743052,-1.9e-4 -4.84856,-0.67744 -4.84859,-0.6774 -3.29606,-0.82667 -3.29606,-0.82666 -1.14749,-0.96555 -1.14748,-0.96555 -0.57196,-1.10606 -0.57195,-1.10599 v -1.64537 -1.64536 l 0.96332,-1.64377 0.96331,-1.64376 1.342,-0.63685 1.342,-0.63681 h 1.53114 1.53115 l 3.48833,0.74443 3.48836,0.74444 3.90657,0.4818 3.90656,0.48179 7.813132,0.004 7.81313,0.004 4.68787,-0.46117 4.68788,-0.46117 5.27386,-0.81226 5.27386,-0.81221 2.10685,0.21619 2.10685,0.21615 1.27116,1.23209 1.27116,1.23205 0.45296,1.62267 0.45297,1.62263 -0.11974,12.50101 -0.11973,12.501 -0.6742,1.23194 -0.67415,1.23189 -1.32433,0.81851 -1.32432,0.81846 -6.40064,0.94426 -6.40059,0.94429 -4.49255,0.41667 -4.49255,0.41672 -6.44583,0.2476 -6.445832,0.24755 z"
       id="path60" />
  </g>
</svg>
